<?xml version="1.0" encoding="UTF-8"?>
<svg id="Layer_2" data-name="Layer 2" xmlns="http://www.w3.org/2000/svg" viewBox="0 0 484.28 484.28">
  <defs>
    <style>
      .cls-1 {
        fill: #eff3cf;
      }

      .cls-2 {
        fill: #231f1d;
      }
    </style>
  </defs>
  <g id="Layer_1-2" data-name="Layer 1">
    <g>
      <path class="cls-2" d="M484.28,242.14c0,90-49.1,168.53-121.97,210.26-2.54,1.46-5.1,2.86-7.69,4.22-13.81,7.26-28.41,13.22-43.63,17.73h-.01c-19.53,5.78-40.08,9.17-61.33,9.81-2.49.08-5,.12-7.51.12-5.9,0-11.75-.21-17.54-.63-8.17-.58-16.23-1.57-24.15-2.95-5.3-.92-10.55-2.01-15.72-3.27-4.96-1.2-9.86-2.56-14.69-4.07-3.27-1.01-6.51-2.1-9.71-3.25-2.63-.94-5.24-1.93-7.82-2.96-4.22-1.68-8.38-3.48-12.47-5.39-2.97-1.38-5.91-2.82-8.82-4.33-4.34-2.23-8.61-4.6-12.79-7.09-2.15-1.28-4.27-2.59-6.37-3.94C44.68,403.41,0,328,0,242.14,0,108.41,108.41,0,242.14,0s242.14,108.41,242.14,242.14Z"/>
      <g>
        <path class="cls-1" d="M218.55,297.41c-6.17-1.91-13.53,12.91-7.25,24.98.52.98,2.05,2.21,3,2.3,4.59.47,10.19-5.83,12.04-12.46,1.71-6.2-1.31-12.8-7.79-14.82ZM215.17,322.18c-2.29.54-4.23-3.32-4.02-5.16.69-6.74,1.89-14.04,7.6-16.19,3.7,2.06,4.64,5.1,4.69,9.04.04,5-2.19,10.87-8.27,12.31Z"/>
        <path class="cls-1" d="M306.68,206.54l-4.86,38.39c-.86,6.67-3.44,12.78-5.56,19.13-2.99,9.03-7.99,16.6-15.04,23.29-5.92,5.63-12.27,11.01-19.31,15.36-6.69,4.12-15.62,8.47-16.48,16.03,4.68.09,8.22.09,11.66-1.5,7-3.18,13.39-7.58,18.28-13.43,5.76-6.91,11.37-13.84,15.08-21.93l8.42-18.26c2.43-5.29,3.98-10.94,5.04-16.66l4.01-21.45c3.15-12.81,4.64-25.52,2.3-38.57-2.18,6.87-2.7,13-3.53,19.59Z"/>
        <path class="cls-1" d="M218.73,348c7.29-4.57,11.73-11.98,14-19.93l-7.99,10.81c-3.6,4.9-9.63,8.77-15.96,9.51-6.89.78-13.44-.04-20.89-.24,9.45,4.74,21.29,5.85,30.84-.15Z"/>
        <path class="cls-1" d="M212.38,182.54c-1.13,6.5-.34,12.98-1.01,19.52l-1.4,13.71c-1.85,12.76-5.04,24.72-8.62,37.16.07,1.69.9,4.14,1.6,6,1.42-4.03,2.39-8.21,3.38-12.59l3.13-13.76c3.92-17.29,6.35-34.47,8.71-52.02l2.41-12.05c.74-3.66,1.44-7.32,3.49-10.44,2-3.12,3.62-6.2,4.05-9.88-2.14,3.08-4.93,5.72-6.8,9.03-4.37,7.84-7.43,16.47-8.94,25.31Z"/>
        <path class="cls-1" d="M197.53,245.02c-1.67,4.64-2.41,9.21-1.22,13.8l2.23-6.8,3.76-17.33c2.86-13.19,2.43-26.71,1.22-40.13-1.1-12.02-4.3-16.51,4.75-29.55l7.7-11.11c3.4-4.9,6.35-10.05,8.51-15.64-6.19,3.92-8.37,10.01-12.29,14.91l-9.21,11.53c-3.58,4.49-5.97,9.55-8.1,14.95-.88,2.19.54,4.94,1.35,7.09,5.63,14.75,5.11,23.72,4.75,38.7-.18,6.76-1.15,13.22-3.44,19.61Z"/>
        <path class="cls-1" d="M283.99,237.37l-1.58-19.39c-.05-.56-.63-2.08-1.19-2.04-2.48.13-3.74,3.4-8.89,2.9-4.52-.41-8.1.48-12.18,2.1-20.15,7.99-31.58,20.82-33.43,42.14,2.66,10.85,5.38,21.41,5.97,32.59l6.19,9.29c4.23-2.73,7.2-8.93,5.29-13.52-1.62-3.88-6.17-3.12-9.57-2.84-2.25-1.99-3.2-7.56-.5-9.73,3.22-2.58,13.24-2.9,16.37,2.04,1.4,2.19,1.71,5.11.88,7.43l-3.94,11.01c8.91-6.52,9.75-17.83,9.14-28.32-.38-6.65-9.34-5.96-16.93-4.07-4.23,1.06-5.63,4.9-7.29,3.45-2.68-2.34-.43-10.62,4.23-13.89,4.1-2.9,8.26-3.64,13.53-2.54,4.3-.61,11.91-1.08,14.25,3.66,2.99,6.02.09,13.39-2.36,18.7-1.1,2.41-2.61,4.25-2.25,6.82,7.05-5.81,10.29-13.63,11.91-21.88.77-3.92-.14-7.89-.63-12-.32-2.58-1.73-5.85-5.02-5.94-13.26-.37-24.87.07-32.08,10.81-1.19,1.78-1.26,3.79-3.67,4.96-.34-10.88,6.48-19.91,16.5-24.22,3.96-1.71,8.22-3.51,12.58-3.81l13.01-.93c1.91-.13,5.58,1.76,6.06,3.55,1.22,4.68,1.28,9.08,1.46,13.85.38,10.55-2.52,20.73-8.71,29.4l-10.9,15.3c4.23-1.88,7.45-4.9,10.65-8.43,12.31-13.63,14.54-28.58,13.1-46.45Z"/>
        <path class="cls-1" d="M175.74,311.67c-1.91-4.64-3.26-9.19-3.96-13.97-1.44,2.6-2.86,6.72-1.69,9.34l5.06,11.31c.74,1.69-.36,4.53-.83,6.56,3.38.35,3.76-7.56,1.42-13.24Z"/>
        <path class="cls-1" d="M181.52,237.81c-.18,1.04-.18,2.19-.09,3.12l2.03,16.86c.07.48.77,1.54,1.19,1.73,2.36-7.78,3.02-18.26-3.13-21.71Z"/>
        <path class="cls-1" d="M188.64,254.62c1.51-9.23,1.82-17.48,1.49-26.09-1.04-6.11-4.66-12.74-10.31-12-.36,3.1-.34,6.44.7,9.06,12.63,6.89,5.85,17.14,8.13,29.03Z"/>
        <path class="cls-1" d="M298.44,408.04l-27.26,16.23c-4.37,2.6-9.57,3.4-14.32.76-10.4-5.78-20.37-11.85-30.21-18.76-6.24-4.4-11.48-10.23-15.69-16.47-5.9-8.73-8.22-18.89-8.19-29.44l-4.97-.39c-2.66,11.44-2.18,27.91,2.21,38.33,3.42,8.19,8.8,15.3,16.28,19.82l20.28,12.22,24.06,15.64c4.3,2.79,10.38,2.27,13.98.09,12.25-7.37,23.95-14.84,35.43-23.25l11.26-9.58c5.7-4.87,9.61-10.72,13.24-17.22,5.63-10.03,8.26-20.91,8.17-32.41l-.16-20.32c-.07-9.4-2.07-18.35-5.47-27.23l-.5,17.12c-.07,11.79-.99,23.23-4.07,34.67-4.82,17.92-17.99,30.64-34.06,40.21Z"/>
        <path class="cls-1" d="M187.55,208.52c-.14-2.75.95-4.51,3.62-4.87,2.88,10.55,3.85,21.04,2.72,31.94-.68,6.56-2.57,12.57-2.25,19.78,3.4-9.36,4.1-19.2,4.59-29.34.41-8.82.22-17.59-2.03-26.17-2.09-7.95-6.03-14.97-9.63-22.66,3.24-7.39,7.56-13.35,12.74-19.15l24.15-27,4.59-4.9c-3.6-.13-8.46,4.92-11.14,8.17-7.99,9.62-16.12,18.52-25.64,26.76-6.17,5.31-6.82,11.27-12.04,11.7-2.41-3.77,1.31-10.4,4.48-14.78l14.07-19.39,7.41-10.23c4.88-6.74,10.67-12.39,18.03-16.88l-1.46-4.12c-7.79,5.4-13.06,11.68-18.44,18.61-3.62,4.68-6.62,9.19-9.32,14.45-4.14,8.06-9.84,15.01-15.1,22.42-2.36,3.34-3.04,7.39-2.59,11.29l4.79,3.29c4.88,6.11,8.78,12.46,10.4,20.13l-9.95-.76.86,8.04,7.14,3.66Z"/>
        <path class="cls-1" d="M311.23,259.95c-7.34,25.61-17.74,49.7-37.48,68.62l-9.99,7.78c-2.7,2.12-6.33,2.28-9.75,2.73-3.02.41-5.24.35-7.97-1.1l-7.65-4.07-4.5,12.72c10.11,6.35,21.68,9.34,31.56,3.88,16.41-9.08,32.87-31.31,39.42-48.1l5.65-14.43c4.95-15.06,11.23-40.15,6.91-55.25l-6.19,27.23Z"/>
        <path class="cls-1" d="M221.14,234.86c-2.45,6.89-4.59,13.35-6.19,20.47-.29,1.34-.34,2.34.95,3.34,2.25-3.83,3.38-6.74,4.32-10.42,3.74-14.73,9.39-28.3,17.13-41.43,3.71-6.33,6.87-12.61,11.62-18.2,2.45-2.9,4.43-5.85,3.2-9.86l-2.07-6.87-8.53-18.78c-2.52-5.53-3.8-11.07-5.27-17.14-2.41,3.9-1.4,8.21-.32,12.05l7.07,25.35c2.75,9.79-2.7,18.94-7.72,27.84-6.08,10.77-10.06,22.06-14.18,33.65Z"/>
        <path class="cls-1" d="M201.15,139.62c-1.8,2.34-4.79,4.12-4.52,7.73l6.51-7.11c5.18-7.35,10.96-13.91,17.69-20.02,1.08-1,1.98-2.12,2.07-3.7-5.63,2.58-9.3,6.74-12.79,11.33l-8.96,11.76Z"/>
        <path class="cls-1" d="M288.4,362.43c-6.08,5.18-12.65,9.4-19.34,13.69-5.92,3.81-12.47,4.75-18.82,1.56-10.24-5.14-18.62-11.87-26.36-20.43l-8.15,2.73c1.4,3.27,2.43,6.85,4.57,10.01,3.71,5.5,8.13,10.44,13.37,14.6,7.59,6.05,15.31,11.14,23.64,16.18,1.26.78,3.98,1.6,5.38,1.54,7.9-3.47,14.68-8.26,20.78-14.13l22.11-21.21c16.32-15.66,22.24-53.73,22.62-76.29.11-6.04-1.19-11.63-2.59-17.94l-.95,6.59c-1.4,14.39-3.65,28.12-8.13,41.95-5.22,16.16-15.01,29.94-28.14,41.14Z"/>
        <path class="cls-1" d="M228.75,172.74c-2.3,11.22-4.34,22.06-7.34,33.11l-9.48,35.08-3.47,12.85c-.52,1.95-.32,4.29,1.19,5.72l3.76-13.63,5.22-18.11c2.27-7.91,4.19-15.43,7.05-23.2,6.19-16.77,9.81-30.66,5.49-48.88-2.59,3.18-1.13,10.75-2.43,17.07Z"/>
        <path class="cls-1" d="M351.45,438.15c-5.15,9.6-13.01,17.31-21.81,23.79-6.11,4.47-12.04,8.85-18.65,12.41h-.01c-19.53,5.78-40.08,9.17-61.33,9.81-7.59-5.82-14.73-10.91-23.22-15.39-17.54-9.23-34.55-20.65-43.58-38.18-9.18-17.89-6.08-38.91,3.62-56.48-1.26,9.49-2.58,18-1.68,27.23,1.48,14.91,9.81,27.13,21.65,36.44,17.11,13.42,34.89,16.58,48.08,26.7l10.02,7.69c2.25,1.73,5.13,1.54,7.36.04l16.03-10.79c7.56-5.11,25.55-8.79,42.45-22.62,8.44-6.91,15.11-15.4,19.09-25.24,3.45-8.47,4.77-16.98,5.43-25.98l.81-10.7c5.92,20.43,5.89,42.36-4.26,61.27Z"/>
        <path class="cls-1" d="M364.13,441.68c-.15,3.69-.78,7.27-1.82,10.72-2.54,1.46-5.1,2.86-7.69,4.22,3.73-5.02,6.98-10.18,9.51-14.94Z"/>
        <path class="cls-1" d="M186.77,355.41l-8.71,15.73c-6.08,12.5-11.24,24.83-14.14,38.41-3.87,18.1-6.37,35.9-4.39,54.39.23,2.07.49,4.13.8,6.17-2.63-.94-5.24-1.93-7.82-2.96-3.44-23.2-.71-49.25,6.37-70.36,5.44-16.2,13.14-31.3,22.82-45.15l5.07,3.77Z"/>
        <path class="cls-1" d="M175.17,469.76l9.56,7.67c-4.96-1.2-9.86-2.56-14.69-4.07-.37-2.83-.58-5.71-.83-8.6l5.96,5Z"/>
        <path class="cls-1" d="M224.6,483.65c-8.17-.58-16.23-1.57-24.15-2.95-1.8-1.47-3.63-2.91-5.49-4.35-9.52-7.37-18.28-14.84-25.71-24.44-.72-7.89-.56-15.99.12-24.01.13-1.66.92-3.79,1.59-5.24,1.85,15.08,7.91,28.86,19.18,39.17,6.94,6.37,15.22,10.4,23.53,15.34l10.93,6.48Z"/>
        <path class="cls-1" d="M144.29,345.7c.61-2.92,1.8-6.28,3.08-8.93l6.55-13.5c-12.74,5.91-16.73,16.86-17.31,29.6l-.63,14.32c-.14,2.58-1.35,5.13.27,7.78,3.83-9.92,5.97-19.28,8.04-29.27Z"/>
        <path class="cls-1" d="M208.62,105.1l-4.63,4.81-4.41,5.05c-2.68-6.89-5-12.82-6.62-19.65-1.58-6.69-2.86-13.24-5.92-19.48-5.2-10.64-14.55-18.24-26.05-22.14-1.48-.5-3.89.52-4.05,2.1-.58,5.66-1.35,11.25-.88,17.03,2.75,34.08,27.69,39.39,35.39,47.88,1.35,1.5,2.36,3.88,3.92,5.22,4.27-5.46,8.59-10.29,13.57-15.59,1.46-1.57,1.96-4.03-.32-5.23ZM166.66,88.88l3.09-.52c-2.88-6.18-5.79-11.01-5.31-18.7l7.69,6c-.99-3.42-1.93-6.7-2.54-11.05,10.2,7.15,16.46,17.2,16.88,29.18.14,3.73,2.05,7.37,2.77,10.99l1.33,6.8c-11.57-4.98-18.93-11.94-23.91-22.7Z"/>
        <path class="cls-1" d="M210.27,103.66c.33,0,.66-.07.98-.21,1.18-.52,1.7-1.87,1.16-3.01-6.77-14.19-5.45-19.67-3.93-26.03.2-.85.41-1.71.6-2.6,3.28,2.31,7.51,5.48,7.57,5.52l4.17,3.12-.92-12.67,4.64,7.64-.46-9.25c-.07-1.44-.15-3.1-.23-4.75.39.61.71,1.11.86,1.36l4.25,7.01.15-8.11c.04-2.26.08-4.18.19-6.04l4.08,7.73,1.2-12.7,2.97,3.58,1.03-5.61,3.1,5.06,2.22-6.62c.28,1.44.61,2.91,1.16,4.29l1.84,4.58,2.43-4.32c.22-.39.75-1.41,1.37-2.59l3.38,12.9,3.19-8.28c.16,2.26.12,4.56-.09,7.06l-.66,7.73,7.36-9.29-.72,17.37,6.17-9.87-1.32,13.93,7.31-8.01c.53,1.31,1.2,2.68,1.88,4.08,1.47,3.03,3.15,6.47,2.77,8.26l-3.72,15.61c-.29,1.22.5,2.44,1.77,2.72,1.27.28,2.53-.48,2.82-1.7l3.73-15.67c.69-3.31-1.24-7.29-3.11-11.14-1.27-2.62-2.59-5.32-2.58-6.92l.03-6.07-4.9,5.37.28-2.91.58-15.23-6.27,10.03.58-14.05-7.16,9.05c-.17-3.22-.7-6.33-1.61-9.69l-1.88-6.99-3.59,9.32-2.8-10.69-2.83,5.55c-.29.58-.74,1.45-1.23,2.41-.43-2.03-1.02-4.02-2.3-5.63l-2.74-3.44-2.62,7.83-4.24-6.94-1.44,7.82-3.78-4.56-.78,8.27-3.52-6.66-1.16,6.84c-.42,2.44-.66,4.6-.81,6.65-.21-.32-.35-.53-.37-.56l-5.71-7.15.16,6.93c0,.36.11,2.6.23,5.12-.11-.11-.22-.23-.34-.34l-4.49-4.43,1.23,16.99c-2.43-1.77-5.3-3.82-6.76-4.71l-3.18-1.94-.42,3.61c-.24,2.06-.67,3.86-1.13,5.76-1.58,6.57-3.21,13.35,4.24,28.94.4.83,1.25,1.32,2.14,1.32Z"/>
        <path class="cls-1" d="M330.2,54.3c-11.91,2.77-24.89,12.74-30.07,22.55-2.91,5.5-4.86,11.46-5.88,17.55-1.37,8.15-3.33,15.9-8.19,23.01l-7.25-12.26c-.31-.52-1.48-1.17-1.93-1.32-.32-.11-1.22.65-1.27.97l-.85,5.33-9.75-6.43c-1.73-1.15-1.96-1.67-2.05-3.95-.18-5.61-.76-10.98-1.93-16.9-2.48,7.09-2.57,13.83-2.28,20.72l8.56,7.51,12.47,12.53c4.88,4.91,7.5,11.31,10.47,17.44,4.48,9.29,5.92,19.35,3.15,29.27-.56,2.03-1.51,3.68-2.95,5.46-1.58-2.28-1.6-3.64-1.17-5.77,1.3-6.84,1.24-14.6-2.61-20.75l-5.13-8.28c-3.45-5.52-5.77-12.04-10.76-16.44l-14.3-12.59-5.4-5.03c-.86,3.14.34,5.05,2.18,6.94l8.42,8.64c6.48,6.65,12.7,13.39,17.31,21.54l6.55,11.55c4.75,8.36,1.4,15.7-.56,16.14-2.77.58-6.93-10.55-9.23-15.65l-4.7-10.4c-1.99-4.42-5.92-7.64-9.41-11.28l-14.88-15.39c-.54-.56-2.5-.97-3.11-1.02,6.71,12.2,18.21,20.33,24.78,32.63,3.49,6.55,5.65,13.24,8.45,20.24-2.23,2.9-4.82,4.66-8.02,6.22l-.09-3.97-10.31-18.76-6.64-10.98c-3.83-6.29-7.58-12.27-12.92-17.99,1.62,6.18,5.18,11.33,8.24,17.05l6.8,12.66c4.54,8.49,12.56,17.96,8.17,25.82l-5.81,10.42c-2.25,5.2-5.36,8.82-8.96,13.13-11.5,13.8-19.09,30.08-24.49,46.93-.7,2.21-1.33,4.49.52,6.33,3.53-11.81,7.81-22.43,14.25-32.76l16.02-19.85c.55-.34,1.9-1.01,2.05-.58.18.43.21,1.49,0,1.93l-5.96,11.85c5.76-2.51,11.07-11.77,15.82-11.83l10.38-.13c10.04-.11,5.85-9.53,12.83-18.33.97,7.39-2.02,14.04-1.51,21.21l1.74,24.53c1.1,15.44-2.1,29.9-8.42,44.61,11.18-8.5,16.38-27.78,17.13-41.04,1.19-21.49,2.9-42.36,5.94-63.59.56-4.03.47-7.71-.49-11.37l-2.46,8.42c-1.93,6.7-2.54,13.44-2.99,20.54l-2.68,42.27-1.19,16.19c-.09,1.02-.88,2.6-1.6,3.27l-.27-34.06c-.09-8.88.25-17.5.67-26.5.18-4.13-.69-8.64.3-12.54l4.77-19.15c1.24-9.51-2.43-20.17-8.11-28.43,2.77-4.05,5.81-8.12,9.39-11.72,3.11-3.14,18.23-8.45,26.97-26.61,6.08-12.63,7.4-26.32,4.25-39.75ZM285.25,186.55c-.99,3.2-2.27,7.73-6.06,9.27-5.2,2.14-11.21,1.19-16.36.45-1.13-.15-2.7,1.41-3.92,2.04-3.08,1.63,4.75-14.69,13.4-19.41,5.94-4.01,13.12-3.34,17.6,2.03l.18,1.65c.2,1.58-3.58-.19-4.84,3.97ZM320.93,87.25c-1.65,6.8-5.99,14.47-11.26,19.18-4.27,3.81-8.64,7.75-14.67,9.33,2.86-9.66,4.59-18.37,6.48-27.36,1.76-8.23,6.68-14.63,12.99-19.76l3.33-2.69c.22,1.35.27,3.01-.05,3.84l-3.51,8.97,7.59-4.99c-.18,5.66-3.49,10.14-6.8,15.67l5.9-2.19Z"/>
        <path class="cls-1" d="M118.43,450.34c-2.15-1.28-4.27-2.59-6.37-3.94l-1.22-3.87-4.57-12.37-4.1-11.01c-1.8-4.87-2.77-9.6-2.95-14.77-.2-6.09-.56-11.99,1.2-17.73l4.99,17.47c4.39,11.22,7.88,22.23,10.43,34.08l2.59,12.14Z"/>
        <path class="cls-1" d="M117.64,397.53l4.05,18.46c1.69-7.47,3.89-14.91,3.08-22.45l-2.75-25.28c-.97-9.06,1.64-23.59,5.56-32.74-4.97,4.96-8.08,10.83-10.56,16.83-3.58,8.67-4.07,17.98-3.02,27.17l3.62,18Z"/>
        <path class="cls-1" d="M172.43,339.88c-7.77,10.61-12.38,22.07-17.74,33.97-11.1,24.61-17.72,50.63-15.94,77.76.23,3.45.69,6.82,1.29,10.15-2.97-1.38-5.91-2.82-8.82-4.33-4.02-31.64,3.45-60.28,17.75-88.56l7.36-14.56,8.58-25.76,1.03-1.11c1.31-1.39,4.03,2.97,6.04,6.54,1.06,1.95,1.89,3.88.45,5.9Z"/>
        <path class="cls-1" d="M277.11,182.46c-5.37.22-9.66,8.03-9.66,8.03.84-1.52,10.51,1.39,12.38-.53,1.86-1.92,3.48-7.54,3.48-7.54,0,0-.83-.17-6.2.04Z"/>
        <path class="cls-1" d="M181.99,194.01l3.72.12s-4.65-11.05-8.51-12.58l2.04,10.19c.26,1.28,1.4,2.22,2.76,2.27Z"/>
      </g>
    </g>
  </g>
</svg>