<?xml version="1.0" encoding="UTF-8"?>
<svg id="Layer_2" data-name="Layer 2" xmlns="http://www.w3.org/2000/svg" viewBox="0 0 1221.96 639.23">
  <defs>
    <style>
      .cls-1 {
        fill: #231f1d;
      }

      .cls-2 {
        fill: #906d2a;
      }
    </style>
  </defs>
  <g id="Layer_1-2" data-name="Layer 1">
    <g>
      <g>
        <path class="cls-1" d="M523.21,77.47h120.51s-13.23,60.49-61.44,132.32c0,0,44.42-5.2,57.18-22.21-1.42,34.5-2.84,67.58-2.84,67.58h-122.87s12.76-48.68,40.17-94.04c27.41-45.37,18.43-36.86,18.43-36.86,0,0-26.46-.47-51.98,22.68,6.14-34.5,2.84-69.47,2.84-69.47Z"/>
        <path class="cls-1" d="M731.85,81.86c-74.07,4.74-69.68,98.77-69.68,98.77,0,0,4.28,74.53,61.56,77.46,46.34,2.37,57.5-9.13,57.5-9.13l4.74-51.41s-18.94,20.63-38.56,17.25c-19.62-3.38-24.69-26.38-24.69-26.38l76.1-3.72s17.93-103.84-66.97-102.83ZM748.76,157.63l-27.4-.34s1.01-30.1,15.22-30.1,12.18,30.44,12.18,30.44Z"/>
        <path class="cls-1" d="M825.39,333.87c-74.07,4.74-69.68,98.77-69.68,98.77,0,0,4.28,74.53,61.56,77.46,46.34,2.37,57.5-9.13,57.5-9.13l4.74-51.41s-18.94,20.63-38.56,17.25c-19.62-3.38-24.69-26.38-24.69-26.38l76.1-3.72s17.93-103.84-66.97-102.83ZM842.31,409.64l-27.4-.34s1.01-30.1,15.22-30.1,12.18,30.44,12.18,30.44Z"/>
        <path class="cls-1" d="M898.94,88.63c-22.32,1.35-33.82,27.74-33.82,27.74l7.44-85.24-64.27,10.15c19.62,60.88-.68,220.87-.68,220.87l56.15-.34-.34-26.38s16.91,31.79,39.91,30.1c23-1.69,42.96-30.78,46.34-87.6,3.38-56.82-28.41-90.65-50.74-89.3ZM863.08,178.26c0-52.09,27.4-66.63,28.75-2.71,1.35,63.93-28.75,52.28-28.75,2.71Z"/>
        <path class="cls-1" d="M958.81,92.69l55.81,1.01v21.99s11.84-28.07,43.29-26.38c4.74,29.77,13.87,86.93,13.87,86.93,0,0-37.54-37.54-50.74-20.29-13.19,17.25,2.37,106.21,2.37,106.21l-65.28.68s18.94-45.32.68-170.14Z"/>
        <path class="cls-1" d="M635.64,340.64l55.81,1.01v21.99s11.84-28.07,43.29-26.38c4.74,29.77,13.87,86.93,13.87,86.93,0,0-37.54-37.54-50.74-20.29-13.19,17.25,2.37,106.21,2.37,106.21l-65.28.68s18.94-45.32.68-170.14Z"/>
        <path class="cls-1" d="M1221.06,95.28l-65.39-.23,4.06,16.24s-6.93-20.29-31.96-20.13c-25.03.17-49.21,33.99-48.54,87.44.57,44.69,15.9,89.63,47.02,88.62,29.07-.95,38.22-28.75,38.22-28.75l.34,25.37,57.16-.34s-22.77-93.58-.9-168.22ZM1165.13,179.28c-1.01,57.5-26.72,56.15-27.06.68-.35-56.82,28.13-61.23,27.06-.68Z"/>
        <path class="cls-1" d="M540.03,344.02s.34-28.41-5.41-42.28c26.38-7.78,63.59-22.32,63.59-22.32l-5.07,63.59,34.16,1.01-10.49,61.9s-17.25-16.57-24.02-17.25c0,0-1.47,105.87,7.55,123.91-27.06,0-67.65-.45-67.65-.45,0,0,12.63-36.98,10.37-122.22-3.61-.45-8.57-2.42-27.06,14.83-.23-13.42-3.38-61.17-3.38-61.17l27.4.45Z"/>
        <path class="cls-1" d="M894.17,283.13h65.96s-8.12,26.04-8.46,108.58c4.06-12.51,13.53-29.77,14.21-51.41,15.56-.34,65.62-.34,65.62-.34l-43.97,65.62s27.06,83.55,42.28,101.81c-41.27,1.69-57.16,2.03-57.16,2.03,0,0-14.21-56.15-13.87-64.6-4.57,5.69-6.99,8.79-6.99,8.79l6.85,55.16-64.8-.03s16.57-61.56.34-225.61Z"/>
      </g>
      <g>
        <path class="cls-2" d="M548.66,572.44c-8.73-3.42-13.1-6.96-13.1-10.59,0-5.07,3.44-7.59,10.32-7.59,2.92,0,5.45.53,7.59,1.6,2.14,1.07,4.67,2.65,7.6,4.72l11.29-9.93c-9.41-7.85-17.92-11.78-25.51-11.78s-13.91,2.22-18.94,6.66c-5.03,4.45-7.55,10.01-7.55,16.69,0,5.39,1.77,9.91,5.31,13.58,3.54,3.66,9.91,7.28,19.13,10.86,9.22,3.58,13.83,7.61,13.83,12.08,0,2.53-1.31,4.76-3.94,6.67-2.63,1.91-5.7,2.87-9.2,2.87-5.06,0-9.93-2.27-14.61-6.81l-13.34,6.43c7.27,10.51,16.59,15.77,27.94,15.77,7.46,0,13.95-2.51,19.47-7.54,5.52-5.03,8.28-10.91,8.28-17.65,0-5.77-1.92-10.7-5.74-14.79-3.83-4.08-10.11-7.84-18.84-11.26Z"/>
        <path class="cls-2" d="M657.94,557.47c-3.11-5.52-7.49-10-13.14-13.44-5.65-3.44-11.62-5.16-17.92-5.16-10.19,0-19.07,4.2-26.63,12.61-7.56,8.41-11.34,18.22-11.34,29.45,0,11.88,3.75,21.97,11.24,30.28,7.5,8.31,16.53,12.46,27.12,12.46,12.2,0,22.42-6.07,30.67-18.2v15.96h16.94v-80.32h-16.94v16.35ZM652.38,600.36c-5.27,5.29-11.58,7.93-18.92,7.93s-13.72-2.66-18.92-7.98c-5.2-5.32-7.8-11.78-7.8-19.38,0-7.01,2.67-13.11,8-18.3,5.33-5.2,11.57-7.79,18.73-7.79s13.65,2.61,18.92,7.84c5.27,5.23,7.9,11.51,7.9,18.84s-2.63,13.55-7.9,18.84Z"/>
        <path class="cls-2" d="M716.6,519.77c-4.71,5.44-7.06,12.73-7.06,21.86v-.51h-14.8v15.48h14.8v64.84h16.94v-64.84h22.3v-15.48h-22.3v-.63c0-3.95.84-7.02,2.53-9.22,1.69-2.2,4.02-3.3,7.01-3.3,3.57,0,7.82,1.65,12.75,4.96v-17.13c-5-2.79-9.45-4.19-13.34-4.19-7.86,0-14.13,2.72-18.84,8.16Z"/>
        <path class="cls-2" d="M834.35,557.47c-3.11-5.52-7.49-10-13.14-13.44-5.65-3.44-11.62-5.16-17.92-5.16-10.19,0-19.07,4.2-26.63,12.61-7.56,8.41-11.34,18.22-11.34,29.45,0,11.88,3.75,21.97,11.24,30.28,7.5,8.31,16.53,12.46,27.12,12.46,12.2,0,22.42-6.07,30.67-18.2v15.96h16.94v-80.32h-16.94v16.35ZM828.79,600.36c-5.27,5.29-11.58,7.93-18.92,7.93s-13.72-2.66-18.92-7.98c-5.2-5.32-7.8-11.78-7.8-19.38,0-7.01,2.67-13.11,8-18.3,5.33-5.2,11.57-7.79,18.73-7.79s13.65,2.61,18.92,7.84c5.27,5.23,7.9,11.51,7.9,18.84s-2.63,13.55-7.9,18.84Z"/>
        <path class="cls-2" d="M906.64,543.3c-3.6,2.96-7.29,7.74-11.05,14.36v-16.55h-16.55v80.32h16.94v-44.49c0-5.97,1.93-10.96,5.79-14.94,3.86-3.99,8.65-5.99,14.36-5.99,1.04,0,3.18.33,6.43.98l5.16-16.94c-3.05-.78-5.39-1.17-7.01-1.17-5.78,0-10.47,1.48-14.07,4.43Z"/>
        <rect class="cls-2" x="944.76" y="541.11" width="16.75" height="80.32"/>
        <path class="cls-2" d="M1030.43,583.7c-3.83-4.08-10.11-7.84-18.84-11.26-8.73-3.42-13.1-6.96-13.1-10.59,0-5.07,3.44-7.59,10.32-7.59,2.92,0,5.45.53,7.59,1.6,2.14,1.07,4.67,2.65,7.6,4.72l11.29-9.93c-9.41-7.85-17.92-11.78-25.51-11.78s-13.91,2.22-18.94,6.66c-5.03,4.45-7.55,10.01-7.55,16.69,0,5.39,1.77,9.91,5.31,13.58,3.54,3.66,9.91,7.28,19.13,10.86,9.21,3.58,13.83,7.61,13.83,12.08,0,2.53-1.31,4.76-3.94,6.67-2.63,1.91-5.7,2.87-9.2,2.87-5.06,0-9.93-2.27-14.6-6.81l-13.34,6.43c7.27,10.51,16.58,15.77,27.94,15.77,7.46,0,13.95-2.51,19.47-7.54,5.52-5.03,8.28-10.91,8.28-17.65,0-5.77-1.92-10.7-5.74-14.79Z"/>
      </g>
      <g>
        <path class="cls-2" d="M109.2,206.52c-1.48.65-2.77.19-4.36.23l.56.65c.11.13.08.6-.09.59-.17,0-.68-.11-.84-.2l-1.65-.97.7,1.09c-.01-.08-1.03-.38-1.01-.13l.07.87c.14.24.43.35.7.27.27-.08.44-.34.43-.63,1.86,2.73,6.56.9,7.14,5.42.35.37.92.99.76,1.33l-.7,1.53c2.57,1.42,5.72,2.09,8.74,1.4-.1-1.6.33-2.99.95-4.44l-.74-1.15c.57.06.67-.31.79-.66l1.17.51-.6,1.31c-.12.26.25.95.5.82l1.12-.62c1.2-.66,2.45-1.17,3.66-2.05l-1.53,2.22c.3.28,1.15.78,1.29.5l.54-1.07c.99-1.95,1.42-3.19.14-5.18l1.31,1.01c1.15-1.65,1.25-3.71.49-5.59-1.99-4.89-11.62-2.84-8-6.57l-.37-.81c-.06-.14.19-.38.34-.35l.66.14c-.07-.85.1-1.22.75-2.11-1.02-.29-1.73-.87-1.74-2.03l-3.6-1.69.67,2.63c-.91.7-.75,1.05-1.41,2.43l-1.15-4.45-1.4,1.6c1.56.63,1.68,1.8,1.87,2.97l.71.17c.11.03-.02.27-.14.28-.07,0-.49,0-.55-.05l-2.38-1.63c-.03.41.02.95-.2,1l-1.23.33c1.59.48,2.01,2,2.75,3.47,1.32-.44,2.54-.87,3.73-.79l-2.61.96.91,1.3c.16.22-.71.89-.9.69l-.75-.83c-.67,1.12.04,2.09.49,3.18-.23.36-1.08.4-1.45.1-.36-.29-.49-.83-.61-1.43l-1.76-.77c.19.94.4,1.79.31,2.35-.07.46-1.25.49-1.68.71l.06,1.02c0,.12-.4.14-.46.04l-.35-.59c-.16-.26-.41-1.13-.71-1.09l-1.1.16h-1.27c-.26-.01-.12.9.03,1.12.21.33,1.59.11,2.59.78-1.53-.06-2.7-.33-3.91-.04,1.61.76,2.84.62,4.33.76Z"/>
        <path class="cls-2" d="M102.94,180.78c-.12-.3-.69-.7-1.1-.94l-.13,2.34c.89-.61,1.35-1.1,1.23-1.4Z"/>
        <path class="cls-2" d="M108.18,151.91c.65-1.04-1.35-1.92-1.9-1.97-.39,1.12,1.28,2.38,1.9,1.97Z"/>
        <path class="cls-2" d="M111.19,198.4c-.08,0-.36.11-.47.17.21.75.86,1.27,1.51,1.09.58-.16,1.76-.42,1.47-1.19-.33-.88-1.31-1.92-2.19-2.2-.25-.08-.67.4-.75.65-.16.52,1.2,1.51.84,1.49l-.41-.02Z"/>
        <path class="cls-2" d="M105.29,184.38l-.18-2.71c-.87.96-1.09,1.07-2.37,1.48l2.55,1.23Z"/>
        <path class="cls-2" d="M139.35,187.48l-1.4,2.38,4.07-.72c-.33.5-.63,1.21-.36,1.45l.99.9c-.37.04-1.27.21-1.39.55l-.44,1.29c1.82.65,3.92-.18,4.1-1.92l-2.01.49,1.28-1.01c.22-.17-.6-.64-.28-.75.4-1.4.58-2.78.51-4.11.39-.13,1.13-.61,1.05-1.04l-.37-1.88.62,1.07c.25.44.43.39.76.09l1.01-.9-.02,2.07c.12.36.97-.08,1.22-.78.18-.51.01-.77-.55-1.05.13-.53.36-1.58.14-2.04-.19-.4-.96-.9-1.38-1.12l.04,2.32-1.16-2.61c-1.41,1.75-2.82,2.72-4.75,3.62,1.38.58,2.54.91,3.19,1.81-.45-.21-1.73-.43-1.89.02l-.69,2.02c-.1-.91.34-1.91.81-2.89l-2.03-.87-.16,2.59-1.27-1.44c-.39.62-.9,1.38-1.16,1.18l-1.3-1.04c.05.36.48,1.32.84,1.85.26.38,1.09.12,1.96.46Z"/>
        <path class="cls-2" d="M102.82,184.94l.47,2.45,2.45-2.33c-1.24.09-1.51.07-2.93-.11Z"/>
        <path class="cls-2" d="M118.55,186.63l1.69,2.79h1.12c.12.01-.12-.34-.21-.42l-.52-.52c-.7-.7-.87-1.98-2.1-1.85Z"/>
        <path class="cls-2" d="M133.14,186.25l1.11-.46c.14-.06.12.33.12.86l.68-.5c.26-.19.52-.58-.01-.52-.78-.82-1.08-.81-1.78-.55-.48.17-.46,1.32-.11,1.17Z"/>
        <path class="cls-2" d="M95.3,181.51l.64,1.44c.19.42.71.26.94-.14l.47-.81.97-.06c.21-.01.09-1.02-.11-.95-.2.07-.67.42-.86.35l-1.36-.51c-.29-.11-1.17.64-.7.68Z"/>
        <path class="cls-2" d="M132.14,203.94c0-.12.09-.13.21-.12l.88.06-.41-.76c-.07-.14.44-.11.6-.1l.9.08c-.49-.88-1.67-1.69-2.86-1.86-.39,1.48-.18,2.7.61,3.57l.06-.86Z"/>
        <path class="cls-2" d="M146.99,186.58c-1.12-.18-2.24.83-1.2,1.39.51.26,1.22,1.28,1.7,1.74l.32-.36-1.26-1.91,2.08,1.07c.37-1.91-.7-1.78-1.64-1.93Z"/>
        <path class="cls-2" d="M122.58,176.41c-.01-.36-.75-1.01-.9-.07l-.7-.29c-.18-.08-.79.34-.64.45l.82.62c.21.16.88.36,1.14.3.25-.06.3-.75.29-1.01Z"/>
        <path class="cls-2" d="M128.05,225.06c-1,2-.44,4.04,1.32,5.27.58,1.05,1.7,1.58,2.4,2.45l3.17,3.91c.09-2.81,1.62-4.06,4.31-4.46-1.26-3.32-1.62-6.36-.82-9.57.85-3.4.68-6.66.75-10.27.02-1.03.88-2.44-.55-2.89-.08.53-.52,1.31-1.07,1.38-.43.05-1.18-.39-1.61-.41l-1.31-.07c-.22-.01-.29.56-.36.82-.19.76,1.89-.05,2.38.86.17.3.18,1.13.06,1.25-.37-.2-1.45-.32-1.44-.03l.04,1.04c-.63-.36-1.64-1.07-1.86-1.65-.19-.5.02-1.52.03-2.52-2.02.65-3.1,2.75-4.06,4.6-1.71,3.28-2.53,6.57-1.4,10.31Z"/>
        <path class="cls-2" d="M114.68,149.94c.45-.13.92-.14,1.32.14.55,1.08-.57,1.22.95,1.01.05.37.26.63.56.74.27.1.57.06.8-.1-.26-.16-.91-.62-.75-.59l.61.09c.16.02.5-.1.93-.26-.15.57.33.66.91.44.36-.13.76-.39.35-.81,1.21.01,1.65.02,2.08.17l.45-2.35-1.33,1.71-2.23-2.32,1.24-.36c.19-.06.19-.45.17-.65-.21-2.08-1.57,2.55-4.85,1.25.37-.57-1.03-1.22-1.58-.79l1.02,1.49c-.12.45-.49.76-.63,1.21Z"/>
        <path class="cls-2" d="M120.25,215.55c-.5.94-.11,2.56.76,2.87l3.72,1.31.84-4.14c-.29-.2-1.07-.11-1.17.13l-.36.87c-.06.15-.57.55-.7.65-.13.1-.39-.29-.37-.45l.07-.81c-.18-.01-.91-.33-.74-.51l.86-.87c-.76-.21-2.5.16-2.92.95Z"/>
        <path class="cls-2" d="M61.19,211.61c-1-1.27-2.04-2.2-3.03-2.99-.35,1.14-.51,1.27-1.4,2.15,1.7-.21,2.55,1.5,4.43.84Z"/>
        <path class="cls-2" d="M67.57,205.76l-.66-.66c.83.16,1.25.31,2.35.23-1.01-1.33-2.27-1.88-3.47-1.68l-.28-1.2c-.04-.15-.67.33-.56.52l2.31,3.99c.24-.6.46-1.06.31-1.21Z"/>
        <path class="cls-2" d="M67.53,214.08c.93.66,1.01,1.16,1.12,2.23l.89-1.84c-.23-.43-1.59-.75-2.01-.39Z"/>
        <path class="cls-2" d="M50.02,219.56l.94-.87c-.81.75,3.58-.95,4.64,1.03l-1.69.27c.77.81,1.11,1.58,1.59,1.81.27.14,8.99-.71,11.61-1.65-.06-.82-.12-1.49-.08-1.86l.84,1.58c.11.2.68.11,1.1-.13-2.28-3.13-5.57-5.53-9.33-6.46l-.11.89c-1.73-.91-2.7-2.34-5.28-1.09l2.42,1.02c-.92.46-1.53.4-1.55,1.48-.22-1.21-.22-1.39-.57-1.9-.15-.22-.52-.09-.87.45-.71-1-1.83-.98-3.18-.47l1.26,1.35c-.99.03-1.71-.13-2.13.07-.54.25-1.21,1.32-.82,1.58.78.84.62,1.78,1.21,2.89Z"/>
        <path class="cls-2" d="M43.9,213.77s-2.48-.41-3.01,2.71c.88,1.45,2.64,2.25,4.03,2.58l.8-.65c.13-.11-.43-.78-.34-.88l.9.38s1.51-1.6,1.6-3.02c-1.17-.93-2.32-1.65-3.63-2.27l-.36,1.15Z"/>
        <path class="cls-2" d="M48.37,223.74c.41,1.19,1.88,1.5,3.06,1.52-.61-1.26-1.78-1.8-3.06-1.52Z"/>
        <path class="cls-2" d="M46.13,211.97l-.53.44c.69.86,1.7,1.5,2.65,2.09l.16-.4-2.28-2.13Z"/>
        <path class="cls-2" d="M70.63,202.17c.36,1.52.85,2.21,2.24,2.6.49-.26,1.91-1.19,2.03-1.44-1.02-1.69.17-3.14-.44-4.69l-1.64,2.08c.57.29,1.44.93,1.2,1.32-.61-.37-1.21-1.02-1.7-.98-.63.05-1.61.75-1.7,1.11Z"/>
        <path class="cls-2" d="M87.15,185.81l-.67-2.06c-.47.08-1.26.87-1.03,1.21.27.39.7.61,1.69.84Z"/>
        <path class="cls-2" d="M75.91,215.6l2.21,1.18.17-.36c-1.29-1.15-2.02-3.13-2.82-1.79-.12.2.23.85.44.96Z"/>
        <path class="cls-2" d="M92.6,180.57c-.4-.09-1.53.18-1.56.55s.09,1.01.18,1.43l-.11.34.73.53-.12-1.9c-.02-.38.46-.41.89-.96Z"/>
        <path class="cls-2" d="M70.3,195.22l.45.05c.29.03,1.24.44,1.26.15.02-.31-.2-1.11-.32-1.38-.12-.26-.9.24-1.13.43l-.57.48c-.1.08.18.25.31.26Z"/>
        <path class="cls-2" d="M89.29,183.68c.3-.16.72.46,1.18.88-.11-.77-.22-.95-.35-1.09-.11-.11-.02-.43.14-.45l.76-.12.15-.29-3.3-.95c.68.94.92,2.13-.11,2.77.03.25.43.99.63,1.23.07-.83.52-1.76.9-1.97Z"/>
        <path class="cls-2" d="M66.86,200.96c-.65,1.32.74,1.81,1.87,2.37-.22-.82-.51-1.36-.33-2.18,1.07,1.14,1.51,1.85,2.16,2.82-.31-1.21-.83-2.35.31-3.14l-1.56-1.18c1.18.07.63-.7.53-1.23-.1-.5-.89-.66-1.21-.26l-.84,1.06c-.6.3-1.28.64-1.73,1-.51.41-.09,2.19.8.75Z"/>
        <path class="cls-2" d="M39.16,216.47c.22-1.22.3-2.31-.21-2.46-.59-.18-1.52-.04-2.39.41.92,1,1.7,1.6,2.59,2.05Z"/>
        <path class="cls-2" d="M203.77,160.91l.1-1.34c.02-.23-.63-.13-.74.06-.09.15-.03.66.07.85l1.46,2.81.65-2.59c-.04-.36-.34-.63-.72-.63l-.81.83Z"/>
        <path class="cls-2" d="M196.63,158.98c.64.28,1.24.49,1.5.22l1.27-1.33c-.35-.31-1.06-.77-1.53-.97-.53-.22-1.78.26-1.85.76-.17,1.13,0,2.43.91,3.32.34-.65.09-1.43-.31-1.99Z"/>
        <path class="cls-2" d="M204.9,158.63c.16-.77-.78-1.64-1.58-1.58,1.37-1.32-.18-2.69-.94-4.2l2.5.18-.22-3.05c-1.65.33-2.31,1.41-2.81,3.04l-1.08.98c-.26.24.15,1.19.29,1.75-.97-.56-.85-.77-1.49-.15-.72.69-1.37.86-.5,1.47,1.49,1.74,3.76,2.92,5.82,1.55Z"/>
        <path class="cls-2" d="M194.98,161.08l-1.15-2.6c-.26.37-.58,1.32-.36,1.65.24.36.9.7,1.51.95Z"/>
        <path class="cls-2" d="M193.02,168.78l1.12.26c.44.1,1.47-.02,1.42-.4-.07-.52-.32-1.27-.6-1.53-.58-.55-2.13,1.62-1.94,1.67Z"/>
        <path class="cls-2" d="M187.51,158.31l-1.02-1.87c-.1-.22-.56.06-.81.68.11,1.56.3.31,1.83,1.19Z"/>
        <path class="cls-2" d="M183.4,155.7c.18-.03.42-.13.81-.3.29,0,.54-.2.59-.48s-.13-.56-.41-.63c-.07,0-.59.12-.72.22l-.9.67c-.18.13.41.58.64.54Z"/>
        <path class="cls-2" d="M178.66,157.73c-.99.63-2.12,1.5-2.41,2.55.28.36,1.21.94,1,1.18l-.88,1c.89.32,2.26.92,1.15,1.88l1.59-.14-.93,1.55c-.19.31.7.95.99,1.05l-.28,1.36c-.07.32.54.85.81,1.11-.4.33-1.04.93-.86,1.33l.9,1.91,9.48-3.41c2.77-1,4.98-3.59,5.91-6.34-1.06-1.59-2.72-2.33-3.55-3.84-.62-1.12-1.46-1.86-2.87-1.61.23.57.48,1.13.33,1.18l-1.01.31,2.67,3.12-.36.08-2.99-3.22c-.35,1.84-2.31-.32-2.21-1.14l-.92-.81c-.2-.18-.94.28-1.08.53.52,1.1,1.87,1.12,1.75,2.59l-1.67-1.88c-1.13.87-.85,1.97-.41,3.09l1.32,3.42c-1.52-2.05-2.42-4.63-1.75-6.91-.81-.37-1.25-.93-1.64-1.83-1.09-.18-1.87.84-2.08,1.88Z"/>
        <path class="cls-2" d="M58.53,223.61c.31.44.55.61,1.26,1.13l-1.8.25.43.63c-.35-.1-.6-.54-1.06-1.34-.31,1.56-2.19,2.44-3.78,1.93-.14.98-.22,1.67.06,2.19.36.66,1.6,1.18,1.32.19.5.45,1.21.37,1.57-.12.33-.45.26-1.08-.13-1.67.55.22.81.89.76,1.57l2.96-.39c.43-.46,1.26-1.01,1.75-1.05.38-.03.83.46,1.49.96,1.14-1.43,1.77-3.25,1.71-4.87l-6.52.58Z"/>
        <path class="cls-2" d="M39.82,212.36l-.87-2.68c-.32.19-.68.47-.82.37l-.74-.53c.09,1.33.81,2.82,2.43,2.84Z"/>
        <path class="cls-2" d="M67.73,167.58l-.34,1.43-.14,1.18c-.02.21.82-.15,1.01-.23.21-.09.91-.52-.31-.81l1.31-2.13c-.26-.12-1.45.16-1.54.56Z"/>
        <path class="cls-2" d="M35.03,218.38c1.24-1.1,2.48-.31,4.06-.52-.92-.91-1.84-1.7-2.61-1.92-.92,1.09-2.31-.63-3.41-.65-.44.11-.87,1.18-.6,1.48l1.2,1.27.52.61c.09.11-.24.45-.37.39-1.1-.55-.87-1.38-1.28-1.28l-.73.17c-.26-1.11-.77-.3-.78-.05l-.05,1.25c-.52-.24-.82-.81-1.11-1.8l-1.9.87c-.73.05-1.17.19-1.14.82.03.68.6,1.51,1.09.56,3.49,1.51,8.19,1.77,12.19-.17-1.42-1.35-3.36-.96-5.07-1.03Z"/>
        <path class="cls-2" d="M47.78,242.73c-1.12,1.43-1.92,2.73-1.2,4.73,1.62-1.24,1.67-2.98,1.78-5.09l3.47-2.28c-2.22-.49-3,1.27-4.06,2.63Z"/>
        <path class="cls-2" d="M149.98,223.09c-1.13-.37-1.36-.34-2.09-.3-.43.03-.54.72-.31,1.58l2.4-1.28Z"/>
        <path class="cls-2" d="M46.27,263.29c1.43.19,2.05.19,3.38-.21l-1.56-3.4-1.82,3.62Z"/>
        <path class="cls-2" d="M173.65,150.18l1.24-.54,1.08.33c.27.08.73-.29.92-.71-1.17-.18-1.54-.93-1.68-2.34l-2.36,1.5c1.13.13,1.62.09,2.45.59-1.11.31-1.67.3-2.84.37.24.38.88.93,1.2.79Z"/>
        <path class="cls-2" d="M161.52,188.44c-.09-.45-.81-.91-1.6-1.29l-.98,4.25c-.05.22-.16.85.03.9l.89.22c.62.46,1.03.7,1.77.08.44-.36.72-1.08.37-1.47-.32-.36-.94-.55-1.66-.86.74-.47,1.31-1.1,1.17-1.83Z"/>
        <path class="cls-2" d="M163.13,183.01c.49-.6.93-1.8-.52-2.15.38-.37.47-.68.42-1.03-.13-.81-1.91-.86-.57.22-.54.22-1.01.22-1.93,0-.56-.3-.93-.81-1.04-1.41-1.09-.22-2.05.48-2.25,1.42.39.52,1.46.87,2.32,1.33l-2.99-.09c.4,1.01.69,2.39-.27,2.53-.42-.32-1.51-1.14-1.86-.69-.26.33-.43,1.12-.69,1.94-.76-.93-1.33-1.66-1.99-1.78-1.43,2.11-1.25,4.07.2,5.53-.21.27-.44.92-.36,1.21s.66.27,1.32.4l-1.09,1.07,2.96,1.31,3.82-1.84c-.57-2.02.62-3.43,1.85-5.2l-1.41-2.39c1.12.23,1.6,1.27,1.88,2.28l1.05-.51c.12-.06-.13-.24-.4-.37l-.59-.28c.98-.36,1.52-.71,2.15-1.48Z"/>
        <path class="cls-2" d="M164.89,155.94c-.49-1.23-1.73-2.46-3.27-2.63,1.39.81,1.44,2.72,3.27,2.63Z"/>
        <path class="cls-2" d="M150.14,157.26l-1.88.49.59.76c.12.16-.43.37-.62.44l-1,.38c1.38,1.35,3.38,1.34,5.38,2.32-.38-1.87-1.2-3.33-2.48-4.39Z"/>
        <path class="cls-2" d="M158.83,164.45c-.04-.42.03-.77.3-.91.23-.12.52-.03.87-.04.97.38,2.09.22,2.62-.57.7-.9.16-1.46-.38-2.5-.29-.57-.67-.98-1.05-.73-1.17.77-.17,3.28-1.06,2.59l-.95-.73.12-2.03c-.8.26-1.82.52-2.21.16-.32-.29-.18-1.01-.47-1.92l-2.85,2.03c1.23,1.97,2.91,3.64,5.06,4.66Z"/>
        <path class="cls-2" d="M164.06,147.48c.12-.57-.1-1.56-.45-1.93-.42.24-1.15.59-.99.76l.85.92-1.31,1.62c1.01-.02,1.7-.48,1.89-1.37Z"/>
        <path class="cls-2" d="M153.6,158.55c.11-.71-.59-1.54-1.29-1.84-.35.83.06,2.47,1.29,1.84Z"/>
        <path class="cls-2" d="M168.31,157.44l1.94,3.32c.28-.47-.03-1.33.25-1.36l1.84-.18c-1.34-1.43-1.33-2.96-1.02-4.91-1.6.38-3.73,1.87-3.01,3.14Z"/>
        <path class="cls-2" d="M174.78,159.49c-.08-.44-.11-1.05.06-.93.27.2.96.13.61-.47l3.98-2.17c.25-.14.43-1.04.27-1.28-.16-.24-.64-.3-1.13-.34.19.7.35,1.34.06,1.51-1.12.67-1.71-.38-3.37.16-.47.15-.54,1.13-.95,1.93-1.17-.64-1.63-1.96-2.1-3.31-.58.09-.61,1.12-.66,1.7-.08,1.01,1.87,3,3.23,3.2Z"/>
        <path class="cls-2" d="M173.17,127.35c.84.61,1.61,1.29,2.63,1.39-.06-1.18-1.67-1.77-2.63-1.39Z"/>
        <path class="cls-2" d="M146.33,161.7l-.06.86c-.01.2-.95.06-.98.25-.08.49.57,1.49,1.18,1.47l2.02-.06-1.54.76c.51-.12.99-.16,1.34.09.35.25.48.7.32,1.11.59,0,.92-.29,1.07-.17l.75.58c-.06-.96-.27-1.77.05-2,.52-.37,1.22.57,2.59-.25.55-.33-.33.31.21,1.04l1.2-2.15c-2.29-.76-4.32-1.16-6.47-2.05-1.15-.47-2.32-1.74-3.44-2.02-1.16,1.34,1.79,2.19,1.77,2.53Z"/>
        <path class="cls-2" d="M163.91,152.4c.22,1.33,1.1,2.2,2.32,2.53l.58-1.83-.9-.58-.21-1.11c-.04-.19-.78.24-.73.42l.19.61-1.25-.05Z"/>
        <path class="cls-2" d="M165.21,157.95c-.13.23.03.6.23.56l1.13-.24c-.58.44-1.53.78-1.56,1.27-.03.62.13,1.69.3,2.07.53-1.14.71-2.03,1.55-2.6l-1.22,3.06c-.06.16-.47.36-.62.37s-.14.53.01.54l.85.02c.15,0,.14-.28.11-.77.28.02.89.2.85-.06l-.26-1.5,1.83.75c-.52-2.15-1.42-3.33-2.55-4.61l-.63,1.14Z"/>
        <path class="cls-2" d="M170.63,146.49c-1.01.73-2.22.95-2.44,1.81-.24.94-.26,1.95-.11,3.07,2.05-1.76,3.83-4.04,2.55-4.88Z"/>
        <path class="cls-2" d="M170.95,149.5v.77c-1.12.26-2.24,1.47-1.6,2.58.68.02,1.83-.34,2.22-.71.36-.35-.19-1.5-.17-2l.03-.83c0-.12-.48.08-.48.2Z"/>
        <path class="cls-2" d="M64.71,210.34c-.14-1.04-.74-2.43-1.32-3.12-1,.56-1.38.85-2.24.27-.03.28-.02.77-.23.78l-1.18.06c.83,1.95,2.86,2.71,4.98,2Z"/>
        <path class="cls-2" d="M226.15,157.38c.57-.03.95-.12.89-.42-.12-.55-.37-1.27-.53-1.47-.56.47-1,.92-1.07,1.22-.15.64.17.71.71.68Z"/>
        <path class="cls-2" d="M221.33,155.64l1.14-.67.07-.18-1.65-.92c-.3-.08-.55.66-.41,1,.13.31.59.92.85.77Z"/>
        <path class="cls-2" d="M216.58,159.05l2.74-1.82c.31-.21.64-.98.36-1.23-.21-.19-.9-.5-.89-.42l-.04,1.62c0,.28-.76.1-.86.04l-1.61,1.4.3.41Z"/>
        <path class="cls-2" d="M221.13,158.04c.02-.27-.38-1.3-.45-1.3l-4.33,3.47c1.96.11,3.92-.92,4.78-2.17Z"/>
        <path class="cls-2" d="M189.54,173.58c-2.99-.33-6.03-.86-8.83.53.74,2.43.93,4.64.95,7.12,2.64-2.62,5.5-3.94,8.8-3.48l5.27-1.23c-1.27-1.2-1.78-2.42-2.35-3.99-1.31-.15-2.75.6-3.85,1.06Z"/>
        <path class="cls-2" d="M213.62,136.82c-.15-.16-.19-.39-.09-.59.07-.85.36-.16.52-.09l.6.25-.35-1.61c-.05-.21.62-.46.74-.56-.86-.31-1.81.07-2.25.93.03.8-.43,2.23.83,1.67Z"/>
        <path class="cls-2" d="M213,151.2c1.74.81,2.07,2.55,3.81,3.14-.97-1.17-2.02-2.18-1.68-3.95-.96-.27-1.91.05-2.12.81Z"/>
        <path class="cls-2" d="M206.21,151.61l-.58,1.7c-.16.46.61.73,1.14.21,1.13-1.12.54-.18-.55-1.9Z"/>
        <path class="cls-2" d="M205.05,165.25c.32-.16.47-.53.33-.85-.11-.27-.4-.43-.69-.39-.29.04-.52.28-.56.59l.52.82-1.22-.57c-.23-.11-.8.27-1.09.38.94-1.11,1.21-2.64.74-4.05-.38-1.12-1.8-1.95-3.14-2.69-2.02.33-3,4.44-3.23,4.4l.99.2c-1.16.74-1.59,1.28-2.15,2.75-.21,1.19.16,2.36,1,3.19,2.74-.27,4.65.24,6.44,2.19,1.91-1.21,2.54-2.98,3.4-4.89-.47-.29-1.29-.08-1.33-1.07Z"/>
        <path class="cls-2" d="M211.61,157.03l.77.06c-.96.76-1.03,1.9-.47,2.8.77-.15,1.71-.26,2.41.39l-2.43.15-.1.71,2.45.32c.69-.98,1.34-1.05,1.58-1.56,1.08-2.32-2.37-1.96-3.69-3.85l-.81.77c-.08.08.17.21.29.22Z"/>
        <path class="cls-2" d="M199.87,171.05c-1.5.29-2.43-.44-3.76-.71-3.84-.79-7.95.33-11.17,2,1.65.54,2.83.63,3.75-.09,1.52.76,2.8-.25,4.25-.61l1.85,1.22c-1.21,1.08.49,3.22,1.6,3.09,2.51-.89,4.35-2.33,5.98-4.19-.77-.52-1.77-.86-2.5-.72Z"/>
        <path class="cls-2" d="M233.13,169.58l1.33,1.18c-1.4-.61-2.64-1.29-3.47.05-.49-.3-1.05-.43-1.04-.23l.08,1.26,5.01-.6.03-2.48-.68.57c-.11.09-.28-.08-.31-.22l-.18-.83c-1.04-.07-1.22.61-.76,1.28Z"/>
        <path class="cls-2" d="M233.04,159c-1.29-1.18-3.45-1.2-4.56.31,1.7-.32,3.07-.66,4.56-.31Z"/>
        <path class="cls-2" d="M231.69,160.25l-1.68-.58c-.32-.11-.98.36-1.12.75.61.93,1.81.55,2.8-.17Z"/>
        <path class="cls-2" d="M213.28,154.42l2.76,2.02.88-1.56c-1.59-.75-2.65-1.02-3.64-.46Z"/>
        <path class="cls-2" d="M225.59,176.32l.36,2.18c.62-.51,1.11-1.25.9-1.57-.18-.28-.91-.56-1.26-.61Z"/>
        <path class="cls-2" d="M228.76,177.83c-.18-.06-.62-.42-.77-.52-.15-.1-.5.1-.52.28s.1,1.01.24,1.13c.72.58,2.61.5,3.59.31-.43-1.43-1.87-1.09-2.54-1.19Z"/>
        <path class="cls-2" d="M232.37,177.58c-.53-.08-.96.03-1.64.39l2.44,1.07c.3-1.29-.39-1.39-.8-1.45Z"/>
        <path class="cls-2" d="M232.11,180.1c-.57-.83-1.85-.94-2.59-.18.97.97,2.15,1.44,3.15,1.26.07-.57.18-2.16-.56-1.09Z"/>
        <path class="cls-2" d="M225.98,174.31l1.84,1.56-.08-1.62c0,.08,2.53.94.56,1.33,1.62.89,3.19,2.04,5.58,1.19-.32.5-.7.89-.5,1.02l1.19.76c.26-.85.41-1.83.44-2.81.26.03,1.04-.2,1.18-.51.15-.32.34-.96.3-1.08-3.65-1.31-6.98-1.88-10.52.16Z"/>
        <path class="cls-2" d="M64.3,230.78c.15.43.83.83,1.3.99.4.14,1.4-.28,1.23-.71-.43-1.08-2.07-1.07-2.52-.28Z"/>
        <path class="cls-2" d="M244.38,165.83c.02.49.81.36,1.55.41.42.03,1.13-.13.76-1.09-.26-.57-1.99-.42-2.31.68Z"/>
        <path class="cls-2" d="M209.74,157.27c-.27.24-.53.92-.47,1.25.07.39.66,1.05,1.08,1.03.48-.71.13-1.82-.61-2.28Z"/>
        <path class="cls-2" d="M225.94,173.13c-.48-.6-.52-1-.31-.98.4.03.53.03.64.13l.74.65c.44.1.77-.88.56-1.36-.42-.99-1.16-1.82-1.94-1.82-.28,0-.96.41-.85.68l.44,1.04c.07.17-.22.7-.33.56l-.52-.74c-.26.53-.53,1.29.08,1.68.38.23,1.24.4,1.49.17Z"/>
        <path class="cls-2" d="M215.87,163.51c-.07.66.02,1.05.34,1.15l1.47.49-1.28.11c-.21.02-.76.16-.86.34s-.03.62.17.65l.85.1,2.5-1.33c-1.22-.27-2.13-.79-3.2-1.52Z"/>
        <path class="cls-2" d="M210.8,166.46c-.18.37.64,1.91,1.04,1.91.36,0,.73-.62,1.12-.52,1.48.38,2.17-1.25,2.6-3.15-1.38-1.08-4.03.25-4.77,1.76Z"/>
        <path class="cls-2" d="M221.54,172.43l-3.5-1.44c-.11,2.67,4.77,1.93,4.34,1.5l-.58-.56c-.1-.09-.23.4-.27.5Z"/>
        <path class="cls-2" d="M222.78,154.85l-.24.21-1.43,1.76c1.19,1.32,1.42.46,1.75-.17.35-.68.28-1.53-.08-1.8Z"/>
        <path class="cls-2" d="M224.67,166.34l3.15-.3c.05.62.2,1.59.4,2.12.68-1.04,1.06-1.82,1.05-2.4-.49-1.04-.63-1.99-1.74-1.54l.05,1.09c0,.19-.67.21-.73.03l-.26-.73-.35-.98c-.07-.2-.73-.14-.79.06l-.19.61-1.2,1.01-.2-.61c-.04-.13-.73.18-.64.29l.53.66c-.26.15-.92.9-.69,1.12l1.44,1.33.18-1.75Z"/>
        <polygon class="cls-2" points="106.32 235.87 108.16 238.5 108.44 235.28 106.53 235.71 106.32 235.87"/>
        <path class="cls-2" d="M99.68,216.7c.47-.73.64.02.61.31-.05.51-.05.64.01,1.4l1.66-2.42c.74.44.69.65.5.94l-.56.84c.78.39,1.44.73,1.76,1.12l-1.06.45c-.12.05.07.24.23.4l.53.49c.06,1.79,1.1,3.9,3.33,3.53-1.16-1.82-1.93-3.44-1.33-5.42l-1.84-2.54c.98.27,1.51,1,2.24,1.79,1.64-.26,3.47-.58,4.55-2.04-.91-.19-1.68-.75-2.22-1.48l2.16.44c.39-4.21-4.34-3.27-8.53-5.24-.09.68-.19,1.43-.54,1.52l-1.54.4,1.32,1.96c-.86-.2-1.04-.46-1.54-.95-.29,1.06-.35,1.72-.07,2.41-.42-.02-.68.81-.99,1.29l-.75-2.02c-1.24.52-.69-1.42-1.91-1.13-.04.55.16.95.37,1.11.17.13-.18.74-.05.9l.55.72c.03.26-.11.52-.37.64l-1.23-.16,1.21,2.26c.99-1.39,2.05-1.86,3.48-1.52Z"/>
        <path class="cls-2" d="M95.06,177.21l1.35-.48c-1.96-.93-4.03-1.83-6.2-1.05-.13-.58-.3-.91-.55-1.02-.2-.09-.91.24-.82.44l.41.87c.63,1.35,1.25,2.6,2.08,3.86l2.17-.11-1.43-2.86c.8-.14,1.54-.11,1.67.28l.58,1.71.55-.65c.07-.09.25-.13.52-.24-.08-.11-.53-.68-.32-.75Z"/>
        <path class="cls-2" d="M108.29,234.61c-.42-2.46-1.54-6.04-2.52-5.74-.95.3-.1,2.25-.58,2.5l-1.58.82,2.66,3.57.22-.46,1.78-.69Z"/>
        <path class="cls-2" d="M93.17,200.62l-2.59-2.9c-.32.5-.78,1.26-.96,1.05l-.8-.97c-.76.71-1.72,1.91-1.22,2.99l1.51-.61c.3-.12.78.94,1.05.78l1.28-.75c.19-.11,1.06.26-.04.78.15.14.89.35,1.31.43.64.12,1.47-.89.47-.81Z"/>
        <path class="cls-2" d="M102.6,226.48l-.37-.87c-.8-.11-.93,1.19-.83,1.85.19,1.21,3.62,1.4,3.95.2-1.55-.85-1.57-3.97-2.38-2.99-.16.19-.18.72-.12,1.03l.16.89c.02.12-.36,0-.41-.1Z"/>
        <path class="cls-2" d="M100.13,229.5c1.37,1.29,3.05,1.83,4.67,1.69.47-2.03-2.17-2.26-4.67-1.69Z"/>
        <path class="cls-2" d="M100.37,227.51l-.21-1.1c-.04-.21-.77,0-.77.22l.02,1.01c-.8-.26-1.43-.94-1.68-1.75-.87,1.1-.63,2,.46,2.39.92.33,2.55.38,2.17-.77Z"/>
        <path class="cls-2" d="M92.36,216.07c-1.43.24-2.15,1.28-1.88,1.43l.83.47c.14.08.17-.72,1.09-1.26.1-.06.05.27.03.37l-.17.95c.12.02.69-.6.81-.93.14-.36-.37-1.1-.7-1.04Z"/>
        <path class="cls-2" d="M65.98,225.3c-.52.26-1.08,1.14-1.12,1.54,1.5.09,2.11.35,3.26.88.64.28,2.05-.42,2.54-1.44l-2.66-.71c-.67-.26-1.39-.59-2.02-.27Z"/>
        <path class="cls-2" d="M67.13,227.66c-.88-.42-1.63.1-2.05.98l2.38,1.01c1.12-.91.42-1.62-.34-1.99Z"/>
        <path class="cls-2" d="M91.71,231.18l.29,1.19c.05.22-.22.57-.43.49l-1.31-.51c.09.61.81,1,1.48,1.05.42.03.65-.76.7-1.26.07-.66-.12-1.36-.74-.96Z"/>
        <path class="cls-2" d="M70.96,225.92c1.15.67,2.5.47,3.43-.22-1.32-.48-2.32-.28-3.43.22Z"/>
        <path class="cls-2" d="M70.24,222.74c.18.8,1.31.77,1.55,1.5-2.03-.76-3.94-1.65-5.94-.99-.37.12-.47,1.47-.09,1.49l1.5.09c.37.02,1.39.62,1.65.36.23-.24.39-.78.56-1.23l.18,1.34c.11.79,2.3-1.37,3.52-.9.64.25,1.14.64,2.02,1.29.59-.18,1.56-.63,2.04-.96-2.28-1.22-4.36-2.58-6.99-1.99Z"/>
        <path class="cls-2" d="M84.15,209.94c.81.92,1.62,1.41,1.79,2.61l-1.97-.56c-.3.2-.78.58-1.05.44-.98-.52-1.12-1.75-1.62-1.51-.16.08-.75.37-.49.24l1.16,1.2c.24.25,0,1.11-.51,1.23l-2.28-3.06c-.54.75-1.05,1.21-1.79,1.85,1.42.95,2.73,3.3,1.3,4.26-.26-.19-.6.34-.16.57l-2.59-.69c.1.47.47,1.37.2,1.57l-1.24.9c.57-.67.78-1.56.56-2.39-.2-.78-.75-1.41-1.49-1.75.11.83-.64,1.87-1.18,1.74l-.79-1.81c-.16-.37-.57-.41-1.15.03.58.51,1.14,1.63.48,2.1-.18-.16-.87-1.21-1.03-.96l-.75,1.15c1.35,2.23,3.75,3.3,6.2,4.23,1.48.57,3.03,1.62,4.54,1.43l.08-1.44c.01-.21.81.14,1,.44l6.11-4.48c.68-.5,1.26-1.41,1.38-2.02.23-1.13-1.84-6.83-4.71-5.32Z"/>
        <path class="cls-2" d="M141.68,239.75c.23-.22.34-.84-.01-1.33-.96,1.39-2.77,3.37-4.34,1.77,1.35-.06,3.4-.4,3.4-1.82,0-1.83-.95-3.77-1.36-5.47-2.67,0-3.56,1.85-4.06,4.23l.26,4.93c-.52,2.65-2.76,4.52-4.93,5.86-4.61,2.86-.84,7.03-.85,12.6,2.41-.8,4.22.14,5.34,2.15l9.47,6.76c.49-6.58,3.97-12.56,1.86-18.44l-3.93-10.96c-.4-.05-.96-.14-.83-.27Z"/>
        <path class="cls-2" d="M171.42,184.84l-1.07,1.16c-.72-.44-1.3-.69-1.85-.59-.68.13-1.1.73-1.01,1.44l2-.48-.41.83.28.04c.74-.02,1.48.06,2.38.32-.83,1.03-1.84,1.17-2.8.94l.65-.38c.12-.07.34-.33.22-.39l-.53-.28-.36-.09c-.19.19-.68.66-.59.91l.31.89c-1.44,2.42,3.18.83,5.3-1.86l-1.42-2.55c-.42.96-.93.18-1.11.08Z"/>
        <path class="cls-2" d="M172.66,188.98c-.78.8-.38.9,0,1.27.21.2.62.15.87-.14.25-.26.27-.66.05-.95-.22-.28-.61-.36-.93-.19Z"/>
        <path class="cls-2" d="M168.58,179.46c-.65-.37-1.7.29-2.69.76-.29,1.1,1.02,2.95,2.14,2.69.52-.16.73-.7.83-1.28l.97.44c.13.08.31-.68.31-.83-.08-.7-.91-1.38-1.57-1.77ZM167.82,181.83c-.42-.05-1.07-.78-.86-1.07.34-.42,1.1-.89,1.43-.73-.13.7-.23,1.02-.57,1.8Z"/>
        <path class="cls-2" d="M178.67,181.67c-.72,0-1.61.18-1.52.59.1.46.41.88.95,1.47l1.52-2.24-1.91-1.63c-.17.97.29,1.33.95,1.81Z"/>
        <path class="cls-2" d="M174.39,184.07l-1.28-.13c-.09.67,1.01,1.48,1.92,1.55.64-.48.24-1.87-.25-2.24-.12.55-.19.84-.38.82Z"/>
        <path class="cls-2" d="M263.88,142.91c5.95-8.87,11.19-17.9,15.52-27.7.99-2.24,1.67-5.27,1.72-7.38-3.05-5.04-7.75-7.44-12.84-9.89-7.77-3.81-13.38-10.23-18.68-17.09-13.1-17.04-14.56-38.69-11.95-59.74.26-1.96.97-4.07,1.64-6-70.91,23.17-131.19,69.71-171.86,130.54l-2.43,3.73c-2.74,4.23-5.4,8.5-7.96,12.86l-.1.03.05.08c-.91,1.54-1.83,3.1-2.71,4.7l-1.49-2.37-5.03,9.78h-1.64l-.34,1.43h-.29l-1.23.03-.68-1.12-.99,1.15-1.2.03-.37,1.23-2.45-.36-1.72-2.48-.76,1.46-1.85-3.91-3.39,8.79-2.66-.08v.55l-1.96-1.2-.31,5.79c-.83.36-1.46.86-1.88,1.25l-6.1-3.03-.23,5.53-.1-.1-.39.5-2.48-.83-.16,4.12-4.59-.57.78,5.06s-.03.03-.03.05c-.47.1-.94.29-1.43.5l-9.31,3.99,4.96,3-3.03,1.43,1.38,4.49,1.12,4.02.16-.03-.76,4.77,2.03-1.57,1.04,3.68c.34,1.23,1.12,2.27,2.11,3,.13.55.31,1.04.5,1.51l-.6.81,1.23.55,2.5,4.67,3.52-2.09,7.9,3.37.08-2.06,2.19.55c-9.29,30.47-14.35,62.79-14.35,96.32,0,35.43,5.58,69.58,15.94,101.56,7.88-15.05,26.09-47.17,26.95-48.68l3.42-6.05,24.89,25.7,31.17-51c-1.46-5.32-3.1-10.57-4.77-15.89-.65-2.06-2.24-3.5-2.32-5.82,1.1.68,1.59,1.8,2.58,1.44,3.21-1.17-.44-7.59,2.74-13.96.81-4.25,1.54-8.37,1.9-12.7-1.41-6.65-4.33-12.55-7.23-18.63-1.51-3.21-.76-7.23,1.46-9.86l6.1-.7c4.15-3.76,4.3-8.09,8.48-12.91,1.57-1.8,2.01-4.28.6-6.34-6.13-8.97-4.9-8.35-13.8-11.09-.7-.21-1.46.18-1.57-1.04-4.57-.24-3.97-5.87-8.32-8.14-1.51-.81-2.92-1.46-4.2-2.43-2.77.81-4.07,2.84-4.72,5.5-.68-.05-1.17-.03-1.41.21-.44.44-.47,1.17-.05,1.44-5.4-.7,1.15,4.23-1.3,7.1.7-2.03-.37-3.73-2.37-5.01-.5,1.07-.34,1.77-.52,3.31l-.55-2.53c-.81.83-1.17,1.54-2.03,1.23,1.98-2.03,4.1-3.6,5.5-5.69.63-.13.47.24,1.43-.52.44-.42.65-.99.6-1.59l-.89-.29c-.18-.05,0-.34.08-.65-.39-.36-1.23-.36-1.3.08l-.26,1.7c-.29-.83.42-1.67-.68-2.11l1.64-1.1-2.5-1.49c1.15-.03,1.8.68,2.9,1.38,0-1.07-.13-1.75.08-2.66-.89-.6-2.09-.5-3.03.94l-.42-1.83-.7.63c-.21.18-.86-.39-.91-.47l.29,1.75c.05.42-.78.78-1.17.99l.29.57c.05.1.21.29.1.31l-.55.03.47,1.64c-1.51-1.15-1.96-1.67-3.65-2.22.05.83.37,1.36.91,2.5-1.36-.76-2.74-1.56-3.21-2.82-.65.96-1.07,1.64-1.77,2.27l2.14-3.83-1.51-2.87.55-.89c.1-.18.83-.26.73-.08-.16.31-.21.94-.05,1.25l.81-1.93c-3.21.73-7.43.81-8.43,3.05l1.36-.55c.31-.13.52.97.81,1.15.7.42,2.17.42,2.63.94.63.65.68,1.8.52,3-1.51-.23-1.2-2.5-3.37-3.42-.78-.34-1.67,1.46-2.79.44-1.49,1.59-2.37,3.94-3.42,6.6-1.1-1.3.1-2.32.42-3.7-1.46.91-2.74,1.67-3.65,2.9-.1-1.1-1.2-.96-1.9-.86-1.12.1-1.1.81-1.75,2.01l.1-1.59-10.2,6.34c-.44,2.22-1.25,4.23-2.27,6.39.08,2.43.29,4.9.99,7.2,1.17,3.83,4.88,5.66,8.5,4.96l-.89.47c-.13.05-.34.18-.26.29l.63.76-2.77-1.02,1.36,2.03c-1.41.21-.21,2.3-1.38,2.92l-.5-1.1c-.78,1.12-.47,1.9-.42,3.31-1.85-1.54,2.37-5.14-1.67-7.67-.05.86-.26.6-.65.5-.44-.1-.21.83,0,.78l1.15-.24c-1.23.86-.86,1.72-.99,3.18l-.34-1.46c-.08-.29-3.21-.55-4.9,1.1l3.29-6.55c-.86-2.53-1.33-5.03-1.83-7.93-.34.91-.63,1.59-1.49,1.75.97-1.64.97-5.27.86-7.62l3.6-4.9c4.17-1.2,7.9-2.79,10.64-5.27-.91-1.12,1.07-2.43,1.3-3.52l.37-.08-1.23,2.77c1.15-.55,1.98-1.25,3.34-1.41.08-.42-.23-.81-.68-.81-.5-.21-.42.1-1.1,1.02l.31-2.58c-1.15-.68-2.56-.5-3.1.5l1.54.05c-1.59.78-2.92-.55-4.02.36l-.21-.78c-.03-.16-.7-.05-.63.1l.34.83c-4.7-.42-3.89-6.47-7.2-4.64-.18.76-.1,1.9-1.3,1.96l-1.93-2.48.08,1.49c0,.23-.29.83-.5.73l-1.49-.73c-.29.91-.26,1.93-.21,3.31-.97-1.12-.13-2.4-.16-3.99l-1.36.63c-.03-.42.03-.57-.65-1.3l-.5,2.63-.39-.24.13-4.04c-.37.24-.6.34-.81.26-.21-.1-.31-.31-.18-.55-.86.1-.23-.31.03-.47.21-.16-.16-.99-.39-.91l-1.57.55c.73-1.41,3.13-.18,3.1-.68l-.1-1.67,1.64.65c.13-.7-.26-1.72-1.17-2.19-3.21,3.37-10.49,1.83-15.39.97-.52,1.36-.1,2.4.13,3.86-.83-.55-1.02-1.2-1.07-2.11-.05-1.1-1.9-2.82-3.05-1.88,1.07.55,2.58.99,2.22,2.45-.68-.1-1.59-.81-2.14-1.36-.29-.16-1.12.44-1.1.68.52.16.99.26.94.47l-.21.81.34.16c.52,0,1.3.26,1.59.68.39.57.34,1.7-.34,2.01-.99-.18-1.9-1.67-1.36-2.56l-.44-.26c-.29.05-.78.65-.65.91l.7,1.46-1.15-.29c-.34.1-.55.42-.55.76l-2.11-.91.76-1.02c-.39.52-1.12-3.37-2.09-2.69.34,1.49.47,2.95-1.04,3.83-.63-1.15-.89-2.63-.97-3.91.39-.26.83-.52.78-.78-.05-.31-.29-.89-.47-1.07-.21-.24-1.12.21-1.2.34l.99.16c.16.03.21.5.05.55l-.86.18-.68.16c-.16.05-.52-.31-.39-.39l.94-.57-.89-.24c-.16-.05-.18-.52-.03-.6.16-.08.86-.29.99-.42.68-.65.91-2.61-.18-3.57.57-.39.91-.31,1.85-.18l-.94-3c-.42-.13-1.02-.21-.97-.5l.29-1.51-1.1.16c-.21.03.57-1.17-.34-.5-1.15.34-2.24-.05-3.29.03l-.05-.21,4.54-1.93c-.44-.36-.68-.47-.86-.34l-.89.68c.18-1.07.57-1.56,1.17-2.66.47.21.81.57.97.31.18-.34.68-1.04.44-1.17l-1.15-.6-1.1-.68c1.15-.47,1.98-.44,2.87.29-.26-1.02,1.33-3.78,1.59-3.5l.63.63-.29-1.77.94.13c.16,0,.18-.65.34-.86l1.85,2.48c.29-1.15-.08-1.62-.5-2.06.68-.44.86-1.17.86-2.09l2.01.76c-1.15-.86-.68-2.79.37-3.6.39.1.7-.05.73-.37l.03-.83c3.34,1.64,5.06-2.53,5.37-1.46l.21.73c1.46.44,2.5-1.02,2.58-2.5.68.42,1.51.83,2.09.34l-.63-.76c-.08-.1-.05-.42.08-.42l.86-.08.03-2.06c.26,0,.99.08,1.04-.1l.31-.78.83,1.8c.91-.52,1.46-1.38,1.96-2.37l1.49,2.17c1.15-1.2.97-1.88.37-3.08l.68.57c.16.1.6,0,.91-.03.1.44.5,1.04.73.78l1.1-1.25.68,1.17.42.05-.86-2.14c.83.13,1.75.6,2.03,1.25.21.39.08,1.2.26,1.67.97-1.3-.63-2.35-.34-3.42l.31-1.1c.05-.18.6-.03.73.13l.65.86c.89-1.15,1.96-1.96,3.29-1.38l.29-1.12c.03-.13.34.34.42.47l2.53-4.9c.23.39.29,1.59.55,1.46l1.64-.83c.03,1.3,1.17,2.11,2.11,3.44l2.09-2.19c-.44-.13-.76-.52-.81-.99-.03-.47.21-.91.7-1.28.63.76,1.96,1.41,3.13.94l-.31,1.1c.21.05.94.36.94.68l-.1,1.43,1.2-.08c.16,0,.44.21.37.36-.08.18-.34.73-.34.73.83.21,1.28.31,1.7.86l-2.56.05,1.33.65c.23.1-.08.73-.18.96l1.12.37c.21.05.55-.39.39-.6l-.55-.7,2.53-.03c-.52-1.41-.81-2.32-.1-3.31l3.26,2.74.29,1.1c.05.16.63.03.65-.13l.16-.89c1.15-.26,1.43-2.3,3-1.83l1.12-2.22c.29,1.38.78,1.72,2.01,1.96l-.44.73c.23,0,.39,2.24,1.9,2.5,1.83.31.68-1.64,2.5-2.11.23-.05.52.37.52.6l.08,1.33.99-.86c.16-.13.86.31,1.04.21l2.03-1.1-1.75.21c-.34.03-.76-.5-.83-.96l2.03.36-1.33-2.06,2.58.55c-.73-1.33-1.25-1.8-2.19-2.56l-.26,1.67c-.03.26-.76.47-.89.21l-.73-1.57c-.13-.29-1.12.29-1.15.6,0,.6-.08,1.59-.55,2.14-1.02-1.1-.57-2.4.26-3.31-.39-.26-1.15-.21-1.17.08l-.29,3.47-.78-1.75c-.13-.31-.81-.39-1.25-.55.31-.55.55-1.28.21-1.54l-1.36-1.02,1.51-.31-2.3-1.54c.55,1.72.94,2.58-.55,3.42l-.6-2.63-1.25,2.16-1.15-2.58c-.39,1.49-.18,2.77-1.67,3.29l1.23-4.33c-.81.6-1.8.97-2.19.68-.13-.7-.21-1.02-.47-1.57-.16-.34-.68-.63-1.04.18-1.3-.86-2.45-.65-3.83.57l.29-3c.37-.37,1.12-1.2.89-1.54l-.97-1.38,1.96-.44c.52.63,1.64.08,2.56.1-.73-.99-1.9-1.15-3.23-1.36.29-.91,1.04-1.07,1.83-1.1l.52-1.8.42,1.04c.05.13.57.21.55.05l-.57-3c-.13-.76-.39-1.33.57-1.46.37-.52.52-.44,1.28.47l1.41-3.7c.5.39.91.81.97.6l.26-.76.21-.78c.05-.18.57-.21.63-.03l.37.94c.08.24.6.68.83.7.26.05.7-.57.52-.76l-.57-.63c1.12.34,2.06.63,3.05.76-.08-1.25-.23-2.22.31-2.19l2.03.05c-.18-.05-.31-.21-.31-.42,0-.18.13-.34.31-.36l.7.03c-.55-1.02-.44-1.7.18-2.56-.73-.21-.91-.26-.97-.5-.1-.36-.18-1.07.05-.99l1.2.55,1.83-3.18c.23,1.15.05,2.19,1.46,2.69-.16-1.23-.29-1.64.47-2.48.44-.5,1.43-.83,2.11-.81l-.08,1.17c0,.16.44.21.6.1l.81-.55c-.7-.81-1.25-1.59-1.17-2.5l.97.39c.1.03-.1-.42-.18-.5l-.63-.6,2.27-1.2c-1.12-1.07-1.75-1.83-1.25-3.31.73.57,1.17,1.2,1.67,1.9l1.04-.86c.16-.16.39.44.42.65l.26,1.33,1.54-1.75c.78-.08,1.67-.68,2.3-1.36.86.86,1.17-.65,1.9.57,1.04-.99,1.9-2.43,2.4-4.12.26.73,1.17,1.96,1.9,2.09.86.16,1.88-.73,2.22-1.59.44.78.83,1.46,1.2,1.23.65-.37.91-.81.99-1.67.1.16.5.86.7.7.18-.13.76-.73.94-.65,2.43.86,3.81.83,2.92,1.7l-.78.76c1.04.08,1.57.18,2.3.44.73-.91,2.27-2.22,3.26-1.02-.78-.18-2.19-.16-2.32.7-.21,1.43,3.34,3.94,1.93,4.07l-1.43.13c1.59.78,1.67,1.8,1.54,3.26-.03.31,1.04.78.89,1.02l-.83,1.1c.89.39,3.21.05,3.08-1.23-.13-1.3-1.41-2.37-.57-3.63l-1.02-.16c-.1-.03-.26-.5-.16-.5l.7-.03.86-.03c.1,0,.03-.44-.05-.55l-.44-.68c.89.16,1.7-.99,1.41-1.62-.73-.1-1.64-.29-1.8-.55.89-.1,1.72-.23,1.93-.89.16-.42-.16-1.02-.52-1.93l2.27.78-.81-1.83c-.13-.29.37-.76.81-.83l-.29,1.2c-.03.18.39.13.68.05l.26,1.02c.05.21.78.26.7.21-.5-4.28,2.37.99,5.19-.5-.5-.16-1.28-.55-1.15-.78l.6-.97.99-1.49c.21-.29.94-.1,1.25.18l.63-1.8c.31,1.36.05,2.01,1.04,2.48l-.7.68c-.13.13.65.47.7.29l.23-.76c.94-.21,1.38-.68,1.96-1.83l.52.83c.29.03.57-.13.65-.39l1.23-.21c.16-.03.05.44-.05.57l-.65.83,2.95-.63-1.57.73c.97.03,1.77.1,2.71.55l-1.96.94,2.92.73-.52,1.02c-.08.16.52.47.57.23.26-1.2.99-2.79,2.19-3.5l-.23,1.04c-.03.18.21.47.34.39l.83-.44c.57-.31,1.51-.08,1.02.18l-1.04.57c-.29.08.34.83.76,1.25.26.26,1.07-.29,1.41-.78.18-.31-.26-.68-.44-1.43,1.02.26,1.54.73,1.75.42.34-.52,1.41-.89.44-1.3l-.78-.94c-.16-.21.73-.6.89-.7l-1.9-1.83,2.97,1.36.47,1.07c.08.18.6-.36.6-.57l.1-.86c-.73-.37-1.25-.73-1.23-1.51.03-.63.26-1.59.94-1.59l.86,1.43c.16.26,1.25.16,1.3.08l-1.02-.86c-.18-.16.37-.7.47-.94l.55-1.43c.55,1.28.73,2.11,1.41,2.35l.29-1.51c.08-.37,1.77,1.28,1.96.89l.42-.78c.1-.18.37-.55.52-.7.13-.13.7.1.76.29l.16.99c.78-.57,1.43-.99,2.11-1.2-.23.7-.05.96.37,1.15.23.13.94.03,1.02-.24l.31-1.12,2.4-.6c.7.86,1.17,1.36,2.03,2.01.6-1.33,1.04-2.37,2.22-2.69.13,1.1.26,1.7.81,2.63.7-.65.63-1.7.16-2.35l3.47-.42-.83,1.3,1.3-.65c.13-.08.34.24.31.39l-.05.78-.08.86c-.03.1.26-.13.37-.18l.55-.31c0,.34-.65,1.41-.29,1.49l1.75.39,1.23,1.59c.26.34,1.25.18,1.98.13l-.91.86,2.43.05c-.16.94-.29,1.49.08,1.83.63.6,1.12,1.04,1.51,1.12.44-1.17.26-.63.23-.44.52.86.83.34.81-.24,0-.26-.18-.44-.42-.55.5-.7.97-1.3,1.15-2.03.03.44-.13,1.15.1,1.28.29.16.52.24.76.83.76-.55,1.67-1.07,2.71-1.41-.44.63-.89,1.07-1.36,1.49l1.12.21c.18.05-.21.7-.18.94.13.97,1.64.73,2.43.97,1.2.39,2.9,1.2,3.86-.18.34-.03,1.17.44,1.38.1l.94-1.38.7.39c.13.08.44-.44.57-.52l.97-.6c.21-.13.7.13.7.31l-.57.57c-.08.08.03.42.1.39l.7-.34c.03.76-.37,1.43-.7,2.06.39-.16.78-.21,1.12-.03.34.16.57.5.78.89l-1.28,1.93c.83.26,1.62.5,1.98.81.29.23-.55.83-.13,1.43-.39.29-.99.1-1.57-.1.63.89-.03,1.8-.42,2.79-.91-1.07-1.51-2.19-2.92-1.43,1.07.36,1.77,1.25,1.83,2.32l-2.71-1.07-.16,1.67c-.03.31-1.04.26-1.49.31-.16.18.18,1.17.52,1.23l1.57.18c-1.25,0-.63,1.02-.91,1.46-.73,1.17.5,1.88.57,2.66.1,1.1.16,1.7,1.1,2.24l.08,2.79.5-.47c.08-.05.16,0,.16.08l.03.52-1.88.55c1.8.52,3.26-.37,3.55-2.01,2.11-2.35,2.06-5.19.89-7.93l-.5.99c-.03.05-.13-.05-.18-.13-.03-.08-.21-.1-.65-.13.6.94-.31,1.72-1.15,2.22l.57.57c.08.08-.03.23-.13.23s-.68-.18-.7-.29c-.16-.57.1-1.57.23-2.3.18-.81,1.41-.83,2.01-1.36l.97-.86c.21-.18-.21-.83-.39-1.17,1.02-.63,1.33-1.59,1.67-2.71l.78.31c.1.05.26-.31.18-.39l-.57-.5c2.56-1.02-.52-4.75,1.77-4.7-.47.94-.89,2.14.44,2.37.63.1,1.25.86,1.64-.47.39-1.23,1.17-2.03,3.23-2.58l-.44,1.2c1.54.36,1.77-2.79,2.5-.94,1.57-1.02,3.6-1.64,5.4-3.26.18.86.7,1.38,1.75,2.14-.68.55-1.38,1.2-.94,2.03l2.22-2.17.7.78c.1.1.08-.5.08-.63v-.73c.65.7,1.46,1.72,2.24,1.43.86-.91,1.59-2.74,3.1-1.72l-2.71,2.17.37.18c.63-.26,1.3-.44,2.06-.34-.78.5-1.54.68-2.27.68l-.34-.52c-.34.24-.52.65-.42,1.02-.94.78.08.7.31.94.5.52,2.17.03.39-.6,1.72.39,3.08,1.15,2.63,3.03-1.07.03-2.19-.08-3,.52l3.05.91c-.89.1-1.57.16-1.93.44-.47.34.16,1.46.52,1.36l1.96-.52.42,1.41c.13.39.89-.34,1.93.08.13.05.16.39.03.44l-.65.31,2.14.63-.86.6c-.16.1-.18.73.03.73l.97.1c.31.03.6.47.44.7l-.81,1.25,3.29-.42c-.16-1.64.63-3.42,2.01-4.75.94.31,1.77.78,2.4,1.46l-2.22-1.02c-1.15.89-1.8,2.22-1.46,3.44.78-1.17,1.77-2.58,2.97-1.93-.5-.03-.97.18-1.28.6l-.65,1.51c.1.05.76-.16.81.05l.16.97,1.1-.37c.21-.05.7.29.65.47l-.31,1.2,2.71.57c-.78,1.88-2.84-.73-3.37,1.3l.21.18c1.04-.13,2.03.55,2.56,1.83-.5.23-1.38.26-1.93,0-.57-.29-.83-1.15-.83-1.7l-.16-.18c-.86-.16-1.46.68-1.7,1.56,1.54.1,2.71.86,3.13,2.35-2.01.55-2.37-1.75-3.57-1.64-.47.05-1.3.55-1.12.89l.78,1.49c.55,1.1,0,2.32,1.25,3.39l-1.02-.16c-.21,0-.37.68-.37.89l2.74-.13c-.05.03-.63.76-.44.83l.89.42c.16.08.78.18.73.34l-.42.99,3.16-1.1c-.65,1.15-1.57,2.22-1.36,3.39l.78-1.02c.1-.13.63-.57.47.13.29.6.91-.26.89-.73-.03-.26-.29-.42-.73-.86l1.23.39c.21.05.44-.34.57-.55l.57.94c.1.16.6-.18.6-.36l.03-.68.94-2.09c.31.39.65.65,1.54,1.3-1.04.08-1.57,1.38-1.28,2.3.18.63,1.33.7,2.56.89.52-.99,1.23-1.88,2.37-1.62-.52.65-.03.89.52.73l-1.04.86c.91-.05,1.54-.24,2.48.18l-4.59.91c.05.18.47.76.76.89.26.13,1.02.08,1.1,0-.37-.34-.73-.63-.57-.68.18-.05.6-.26.63-.13l.23.76c.63.03,1.93.03,1.98.55-.57.31-1.46.81-1.46,1.2,0,.36.47.89.76,1.33-1.23-.1-2.48-.68-3.34.26h1.04c.13,0,.03.31-.05.42l-.7.68,2.3-.73c-.26.44-.55.91-.63,1.23-.34,1.36,1.98.89,1.93,2.03-.03.7-.18,1.02-.76,1.25l.55.83c.1.16-.29.55-.47.52l-.78-.16-2.56.65c.08.91-.1,1.96-.76,2.63.39-2.63.39-4.3-1.98-5.19l1.1,3.76c-.1-.08-1.54-.03-1.43.29l.47,1.3c-.55.31-1.38.73-1.77,1.15-.29.29.21,1.07.26,1.64-.39.05-.94-1.1-.7-1.41l1.02-1.41c-.26-.37-1.15-1.04-1.15-1.41.03-.42.47-.73.05-1.51-.34-.63.7-1.72-.57-2.01-.34-.94-1.93-.55-2.17-.08.16.34.47.57.83.63s.73-.08,1.12-.24c-.29.86-1.25.89-2.45.86l1.49,1.17.76-.57c.08-.08.05.21.05.31l-.13.63c-.03.21.18.97-.03.91l-.94-.18c-.63-.16-1.46-.08-1.85-.63-.29-.39-.52-1.07-.7-1.54l-.78.57c-.13.1-.44-.21-.44-.37l.08-.91c-2.17.94.97,3.47-2.37,3.81l.21.52c.03.05-.05.05-.1.05l-.55.08c.68.78,1.28,1.41,1.77,2.35l-2.43-2.17-.37,2.77-.44-.89c-.29-.57-1.51.39-2.74-.76l1.75,4.93c-1.3-1.1-.47-2.5-1.93-3.7-.21,1.15-.08,2.22.1,3.57-.78-1.07-.76-2.22-.63-3.65.23-1.23.5-2.19-1.02-2.79-.55-.16-2.27-.63-2.32.89l-.86-1.15c.47-.94.97-3-.63-3.18-.5-.6-2.27-1.41-2.61,0-.47,2.09.89,4.36,2.14,5.82-2.11-.65-2.35-3.08-2.61-4.83-.21-.16-.73-.39-.7-.6l.16-.78c-1.9-1.33-4.49-.81-6.65-1.2-2.92-.47-5.48-.76-8.5.7.55,1.1,1.49,1.59,2.63,2.22-1.41.03-2.35-.96-3.68-1.8-.5,1.12.37,1.64.78,2.48-1.43-.03-1.46-1.43-1.85-2.63-2.82.1-5.03,1.9-7.49,2.87l-4.72,1.04c-3.05.65-4.64-.76-10.38,4.9.34.5.65.99.42,1.12l-1.12.52c.39.73,1.83.16,1.62.99l.97,1.67c.21.37-.08,1.33-.52,1.15l-1.17-.42c-.18-.08-.47.47-.42.65l.31,1.02-.89-.37c-.1-.03-.05.29,0,.47l.29.76c.5.21.94.42,1.1.7-1.33-.26-.21,1.07-.76.81-.39.03-.73-.26-.76-.65-1.8-.29-2.58-.42-3.18-1.98l-.29.89c-.03.1-.18.31-.21.21l-.31-.91-2.01,2.45c-2.37.26-4.49.42-6.68,1.51.94.24,1.72.44,2.17,1.04l-1.36-.39c-.21-.08-.73.37-.68.63.6.39,1.41.86,1.7,1.54l-1.72-1.17.23,5.14c.31.24.99.78.81,1.02l-.86,1.07c-1.15,1.36-2.32,2.63-3.91,3.57-4.25,2.45-8.4,5.17-13.02,6.94-3.91,1.51-6.73,4.28-7.62,8.5-.29,1.43-.83,3.18.5,4.33.55-2.19,1.17-4.12,2.84-4.83,1.83-.78,3.68-.6,5.45.52l14.43-1.3c.52.55,1.2.6,1.8.18l3.65-2.58c-.78,1.85-1.93,3.55-3.6,4.51l-11.87,1.85c-2.11.34-4.46-.5-6.99.57l-1.85,2.09c-.08.99-.47,1.75-.94,2.71.52.63,1.83.7,2.77.52-1.15.65-2.84.83-3.83-.57-.21.36-.23.7-.23,1.41,0,.29.16,1.23.97.08-.18,2.84,1.3,5.4,2.32,8.22l4.25,11.84c-.08,2.27-.5,4.41-1.23,6.55.05,2.9-.44,5.58-1.25,8.35l.42,7.1c.13,1.8-.73,4.1-2.4,4.54-8.79-1.1-9.78-6.31-15.86-9.31-1.23-1.17-2.87-1.04-4.07.21,0,1.93-1.23,3.42-2.95,4.2l-2.92,3.05c-1.93,2.06-3.7,4.04-6.57,5.3l5.5,11.76c1.67,3.57,2.63,7.3,2.14,11.35l-1.1,8.77.26,16.02,1.25,4.51,2.45-3.99,41.01,26.04,57.58-119.14,44.17,31.38c.39-4.36.34-8.84-.47-13.15-3.6-19.15-4.9-37.85-3.68-57.37.31-5.35.7-10.75-.03-15.91-.44-2.87-3.13-5.71-2.66-8.84.23-1.46.29-4.04-.42-5.24l7.57-1.51-9.39-3.94.81-1.38-2.37.73-.16-.05c.78-1.46,1.38-2.92,1.38-4.46,0-5.66,1.12-10.12,4.23-14.82ZM86.17,239.61c-.99.55-2.22,1.02-3.21.65,1.1-.63,2.11-.52,3.21-.65ZM71.74,177.08c.08-.29.89-.34,1.1-.1.31.34.47.94.44,1.59l.47.65c.13.16-.21.73-.42.7-.21-.03-.68-.21-.86-.34l-1.2-1.1c-.26-.21.34-.96.47-1.41ZM226.44,91.83c-5.4.63-9.23,2.4-11.63,7.75-3.78-3.57-7.72-4.02-12.73-1.04,1.83-5.63,7.59-4.77,11.87-3.13,3.08-2.63,7.46-6.97,12.5-3.57ZM198.08,65.14c.94.08,2.19,1.3,3.03,2.32,1.88-2.84,5.79-5.09,9.29-2.48-3.86.13-6.83,1.77-9.21,5.17-.99-1.25-1.9-2.58-2.61-3.03-.73-.44-2.35-.23-4.04-.29.73-.78,2.4-1.75,3.55-1.7ZM183,85.2c2.06-.34,3.73.26,5.5,1.36,1.67-2.53,4.67-3.97,7.23-2.09-3.63.31-5.74,2.24-6.94,5.69-1.64-1.43-3.1-2.87-4.3-3.16-1.54-.39-3.42.78-4.93,1.59.42-1.54,2.17-3.18,3.44-3.39ZM186.19,118.59c-1.49-1.8-3.08-3.7-4.54-4.07-2.43-.63-4.25.86-6.78,2.17.73-1.51,2.3-3.31,3.86-4.15,2.82-1.54,5.5-.34,7.1,2.01,2.09-3.99,6.6-5.79,10.07-3-4.77.57-8.01,2.66-9.7,7.04ZM209.54,130.07c-3.83-3.94-8.24-4.15-13.33-1.2,1.54-4.36,6.39-5.82,10.57-3.7,1.17.57,2.45.34,3.31-.68,2.82-3.36,7.36-5.01,11.61-2.61-5.32.73-9.73,2.35-12.16,8.19ZM236.14,111.58l.29,1.51c.05.29-.73.73-1.12.96l-1.9,1.12c-.37.21-.5-2.16-.91-2.27l-10.67-2.69c3.52-1.54,7.57-.99,11.3,1.02,4.2-3.18,6.44-7.15,12.5-5.79-3.7,2.01-6.78,3.76-9.47,6.13ZM235.08,179.33c1.2.94,2.03,2.06,2.24,3.65l-2.24-3.65Z"/>
        <path class="cls-2" d="M175.56,170.01c-1.66.52-1.15,1.93-.88,3.49l-1.03-1.4.14,2.27c-1.2-.44-1.64-.84-2.22-1.55-.73-.89.89-3.9-.09-3.78l-1.15.14c-.4.05-.45,1.07-.16.94l.98-.45c.12-.06.16.37.15.67-1.67.22-3.05.97-3.7,2.37-.27-.01-.73.23-.61.32l.39.29.61.46-2.12.31c.18.23.8,1.22.67,1.58-.13.36-.98.7-1.39.66-.34-.04-.71-.29-1.35-.6.17,1.42.78,2.33,1.41,3.49,1.87-1.32,3.11-2.95,5.1-3.74,0,0,.11.11.27.26l-2.17,1.12c-.17.19-.59.88-.39,1l.91.53c.2.12.36-.79.34-.81l1.36-.14c-.29.83.72.67.76.08l.48,1.46c.25-.93.2-1.59-.15-2.6l.96-.99c.21-.22.89.56.88.87-.03.74-1.47,1.4-1.05,2.47.14.36.75.55.94.21.25-.45.62-.58.91-.65.23-.05.25-.72.17-1.18,1.83-.74,3.57-2.06,4.54-4.18l-3.51-2.92Z"/>
        <path class="cls-2" d="M129.15,242.86c-.32.2-.56.75-.76,1.33-.76-2.56,1.94-1.24,3.1-3.13.56-.91.26-1.84-.35-2.88-1.42-.14-2.87-.07-3.95.68-.3,1-.72,1.49-1.64,1.79l1.26-2.25-4.7.79.63-1.45c.99.25,2.07.36,3.46.43l-.79-1.85c1.45,1.96,3.17,1.73,5.35,1l-6.66-7.05c.11-2.81,1.6-5.77.19-8.43-1.62-3.06-7.98-1.37-12.72-3.15-1.51-.57-3.36-.63-4.91.06-.98,2.74,2.62,5,1.08,5.54-.89.31-1.24.67-1.66,1.47-.32.59.17,1.17.51,1.81.04,1.79,1.35,4.4,3.38,4.82.12,1.59.38,3.61,1.12,4.97,1.05.52,1.91.92,2.63,1.63l-4.38-1.89,2.49,3.42c5.69.7,10.09,3.82,13.09,8.76,1.32-3.14,3.37-4.65,6.08-6.31-.4-.27-1.37-.36-1.82-.09Z"/>
        <path class="cls-2" d="M146.64,223.2c-.21.03-.85.3-.97.48-.57,1.15-1.47,2.84-1.61,4.15l2.72-3.67c.16-.22.12-.99-.14-.96Z"/>
        <path class="cls-2" d="M163.48,194.05c-.54-.71-3.4-.5-3.74.59-.15.46-.05,1.28-.03,2.04-.86-.72-.4-1.82-.33-2.85l-.94.44c-.14.07-.06-.33-.01-.51l.25-1.02-7.19,1.64.45,1.05c.05.13-.14.47-.27.4l-.8-.43c-2.12,4.7,1.38,5.84-4.67,9.73l1.12.47c.19.08.16.53-.05.55l-.97.11c-.34.04-1.11.58-1.24.9-.13.32.5.66.81,1.64l-1.59-1.16c-.83,2.37-1.6,4.41-1.64,7.02,2.69-2.59,5.28-3.81,8.46-5.25,3.57-1.62,6.79-3.64,10.05-5.4,3.15-1.71,3.5-5.01,2.31-7.92.08-.51.29-1.67.02-2.03Z"/>
        <path class="cls-2" d="M148.25,194.5l-1.56.13c-.28.02-.61-.67-.89-.93l-3.22.97c.61.91.85,1.97,0,2.44-.39.22-1.06-.88-1.13-1.4l-3.89,3.23c.71,1.41-.89.35-.38,1.59.14.44.52.71.95.67s.76-.36.85-.78c1.17.7-.76.99-.34,1.46.79.48,1.28,1.51,1.79,1.44l2.17-.27-.87.78c-.12.11.17.27.36.35l.99.42c4.05-3.89,4.27-4.18,5.15-10.12Z"/>
        <path class="cls-2" d="M177.85,177.15c-.31.33-.06,1.36.4,1.74.46.38.73.46,2.02.66.11-1.51-.05-2.89-.49-4.46l-1.92,2.05Z"/>
      </g>
      <path class="cls-1" d="M226.91,245.3l-57.42,118.86-41.48-26.32-43.88,71.77-24.7-25.51s-23.53,41.48-29.11,52.98c31.62,90.86,101.87,163.65,191.12,198.63-3.18-25.93-10.04-51.13-17.87-76.07-4.46-14.17-9.78-27.21-15.52-40.88-5.45-12.94-9.31-25.98-11.69-39.91-3.21-18.68-4.49-37.12-3.91-55.96.21-6.57,1.67-12.65,2.74-19.12,4.77-28.36,15.84-52.31,39.03-69.76,8.17-6.16,24.65-13.1,35.09-15.81,4.75-1.23-.55-9.08,8.79-22.28,4.57-6.44,9.03-12.99,10.28-21.13l-41.45-29.48ZM41.87,451.47l-7.17-15.94,24.31-47.06-17.14,63ZM96.92,426.35l-9.99-15.94,41.48-67.8-31.49,83.74ZM199.8,338.62l-25.54,24.34,53.84-111.26-28.3,86.92Z"/>
      <g>
        <path class="cls-1" d="M313.66,293.85c-6.64-2.13-14.57,14.45-7.81,27.96.56,1.09,2.21,2.47,3.23,2.57,4.95.53,10.99-6.52,12.97-13.94,1.84-6.94-1.41-14.33-8.39-16.59ZM310.03,321.57c-2.47.61-4.56-3.71-4.34-5.77.75-7.54,2.04-15.71,8.2-18.11,3.98,2.3,5,5.7,5.04,10.11.05,5.6-2.35,12.17-8.9,13.77Z"/>
        <path class="cls-1" d="M408.6,192.15l-5.24,42.97c-.92,7.47-3.71,14.31-5.99,21.41-3.23,10.11-8.61,18.58-16.2,26.07-6.38,6.31-13.22,12.32-20.81,17.19-7.2,4.61-16.83,9.48-17.75,17.94,5.04.1,8.85.1,12.56-1.67,7.54-3.56,14.43-8.49,19.69-15.03,6.21-7.74,12.25-15.5,16.25-24.54l9.07-20.44c2.62-5.92,4.29-12.25,5.43-18.65l4.32-24.01c3.4-14.33,5-28.57,2.47-43.17-2.35,7.69-2.91,14.55-3.81,21.92Z"/>
        <path class="cls-1" d="M313.86,350.48c7.86-5.12,12.63-13.41,15.08-22.31l-8.61,12.1c-3.88,5.48-10.38,9.82-17.19,10.65-7.42.87-14.48-.05-22.5-.27,10.18,5.31,22.94,6.55,33.22-.17Z"/>
        <path class="cls-1" d="M307.02,165.28c-1.21,7.27-.36,14.53-1.09,21.85l-1.5,15.35c-1.99,14.28-5.43,27.67-9.29,41.59.07,1.89.97,4.63,1.72,6.72,1.53-4.51,2.57-9.19,3.64-14.09l3.37-15.4c4.22-19.35,6.84-38.58,9.38-58.22l2.59-13.48c.8-4.1,1.55-8.2,3.76-11.69,2.16-3.49,3.9-6.94,4.36-11.06-2.3,3.44-5.31,6.4-7.32,10.11-4.7,8.78-8,18.43-9.63,28.32Z"/>
        <path class="cls-1" d="M291.01,235.22c-1.79,5.19-2.59,10.31-1.31,15.45l2.4-7.61,4.05-19.4c3.08-14.77,2.62-29.9,1.31-44.91-1.19-13.46-4.63-18.48,5.12-33.08l8.29-12.44c3.66-5.48,6.84-11.25,9.17-17.51-6.67,4.39-9.02,11.2-13.24,16.68l-9.92,12.9c-3.86,5.02-6.43,10.69-8.73,16.73-.95,2.45.58,5.53,1.45,7.93,6.06,16.51,5.5,26.55,5.12,43.31-.19,7.57-1.24,14.79-3.71,21.95Z"/>
        <path class="cls-1" d="M384.16,226.66l-1.7-21.7c-.05-.63-.68-2.33-1.29-2.28-2.67.15-4.03,3.81-9.58,3.25-4.87-.46-8.73.53-13.12,2.35-21.7,8.95-34.02,23.3-36.01,47.17,2.86,12.15,5.8,23.96,6.43,36.47l6.67,10.4c4.56-3.06,7.76-9.99,5.7-15.13-1.75-4.34-6.64-3.49-10.31-3.18-2.43-2.23-3.44-8.46-.53-10.89,3.47-2.89,14.26-3.25,17.63,2.28,1.5,2.45,1.84,5.72.95,8.32l-4.24,12.32c9.6-7.3,10.5-19.96,9.85-31.69-.41-7.45-10.06-6.67-18.24-4.56-4.56,1.19-6.06,5.48-7.86,3.86-2.89-2.62-.46-11.88,4.56-15.54,4.41-3.25,8.9-4.07,14.57-2.84,4.63-.68,12.83-1.21,15.35,4.1,3.23,6.74.1,14.99-2.55,20.93-1.19,2.69-2.81,4.75-2.43,7.64,7.59-6.5,11.08-15.25,12.83-24.49.82-4.39-.15-8.83-.68-13.44-.34-2.89-1.87-6.55-5.41-6.64-14.28-.41-26.8.07-34.56,12.1-1.29,1.99-1.36,4.24-3.95,5.55-.36-12.17,6.98-22.29,17.78-27.11,4.27-1.92,8.85-3.93,13.56-4.27l14.02-1.04c2.06-.15,6.01,1.96,6.52,3.98,1.31,5.24,1.38,10.16,1.58,15.5.41,11.81-2.72,23.21-9.38,32.91l-11.74,17.12c4.56-2.11,8.03-5.48,11.47-9.43,13.26-15.25,15.67-31.99,14.11-51.99Z"/>
        <path class="cls-1" d="M267.54,309.81c-2.06-5.19-3.52-10.28-4.27-15.64-1.55,2.91-3.08,7.52-1.82,10.45l5.46,12.66c.8,1.89-.39,5.07-.9,7.35,3.64.39,4.05-8.46,1.53-14.82Z"/>
        <path class="cls-1" d="M273.77,227.14c-.19,1.16-.19,2.45-.1,3.49l2.18,18.87c.07.53.82,1.72,1.29,1.94,2.55-8.71,3.25-20.44-3.37-24.3Z"/>
        <path class="cls-1" d="M281.44,245.96c1.62-10.33,1.96-19.57,1.6-29.2-1.12-6.84-5.02-14.26-11.11-13.43-.39,3.47-.36,7.2.75,10.14,13.6,7.71,6.3,19.18,8.75,32.5Z"/>
        <path class="cls-1" d="M399.73,417.67l-29.37,18.16c-4.7,2.91-10.31,3.81-15.42.85-11.2-6.47-21.95-13.26-32.54-21-6.72-4.92-12.37-11.45-16.9-18.43-6.35-9.77-8.85-21.15-8.83-32.96l-5.36-.44c-2.86,12.8-2.35,31.23,2.38,42.9,3.69,9.17,9.48,17.12,17.53,22.19l21.85,13.68,25.92,17.51c4.63,3.13,11.18,2.55,15.06.1,13.19-8.24,25.8-16.61,38.17-26.02l12.12-10.72c6.14-5.46,10.35-12,14.26-19.28,6.06-11.23,8.9-23.4,8.8-36.28l-.17-22.75c-.07-10.52-2.23-20.54-5.89-30.48l-.53,19.16c-.07,13.19-1.07,26-4.39,38.8-5.19,20.05-19.38,34.29-36.69,45.01Z"/>
        <path class="cls-1" d="M280.27,194.35c-.15-3.08,1.02-5.04,3.9-5.46,3.1,11.81,4.15,23.55,2.93,35.74-.73,7.35-2.76,14.06-2.43,22.14,3.66-10.48,4.41-21.49,4.95-32.83.44-9.87.24-19.69-2.18-29.29-2.26-8.9-6.5-16.76-10.38-25.37,3.49-8.27,8.15-14.94,13.73-21.44l26.02-30.22,4.95-5.48c-3.88-.15-9.12,5.5-12,9.14-8.61,10.77-17.36,20.73-27.62,29.95-6.64,5.94-7.35,12.61-12.97,13.09-2.59-4.22,1.41-11.64,4.83-16.54l15.16-21.7,7.98-11.45c5.26-7.54,11.49-13.87,19.42-18.89l-1.58-4.61c-8.39,6.04-14.06,13.07-19.86,20.83-3.9,5.24-7.13,10.28-10.04,16.17-4.46,9.02-10.6,16.8-16.27,25.1-2.55,3.73-3.27,8.27-2.79,12.63l5.17,3.69c5.26,6.84,9.46,13.94,11.2,22.53l-10.72-.85.92,9,7.69,4.1Z"/>
        <path class="cls-1" d="M413.5,251.92c-7.91,28.66-19.11,55.63-40.38,76.8l-10.77,8.71c-2.91,2.38-6.81,2.55-10.5,3.06-3.25.46-5.65.39-8.58-1.24l-8.25-4.56-4.85,14.23c10.89,7.11,23.35,10.45,34,4.34,17.68-10.16,35.41-35.04,42.46-53.83l6.09-16.15c5.33-16.85,12.1-44.94,7.44-61.84l-6.67,30.48Z"/>
        <path class="cls-1" d="M316.45,223.84c-2.64,7.71-4.95,14.94-6.67,22.92-.32,1.5-.36,2.62,1.02,3.73,2.42-4.29,3.64-7.54,4.66-11.66,4.03-16.49,10.11-31.67,18.45-46.37,4-7.08,7.4-14.11,12.51-20.37,2.64-3.25,4.78-6.55,3.44-11.03l-2.23-7.69-9.19-21.02c-2.72-6.18-4.1-12.39-5.67-19.18-2.59,4.37-1.5,9.19-.34,13.48l7.61,28.37c2.96,10.96-2.91,21.19-8.32,31.16-6.55,12.05-10.84,24.69-15.28,37.66Z"/>
        <path class="cls-1" d="M294.92,117.24c-1.94,2.62-5.17,4.61-4.87,8.66l7.01-7.95c5.58-8.22,11.81-15.57,19.06-22.41,1.16-1.12,2.13-2.38,2.23-4.15-6.06,2.89-10.02,7.54-13.77,12.68l-9.65,13.17Z"/>
        <path class="cls-1" d="M388.91,366.63c-6.55,5.8-13.63,10.52-20.83,15.33-6.38,4.27-13.43,5.31-20.27,1.75-11.03-5.75-20.05-13.29-28.4-22.87l-8.78,3.06c1.5,3.66,2.62,7.66,4.92,11.2,4,6.16,8.75,11.69,14.4,16.34,8.17,6.77,16.49,12.46,25.46,18.11,1.36.87,4.29,1.79,5.8,1.72,8.51-3.88,15.81-9.24,22.38-15.81l23.81-23.74c17.58-17.53,23.96-60.14,24.37-85.38.12-6.77-1.29-13.02-2.79-20.08l-1.02,7.37c-1.5,16.1-3.93,31.48-8.75,46.95-5.63,18.09-16.17,33.51-30.31,46.05Z"/>
        <path class="cls-1" d="M324.65,154.32c-2.47,12.56-4.68,24.69-7.91,37.05l-10.21,39.26-3.73,14.38c-.56,2.18-.34,4.8,1.29,6.4l4.05-15.25,5.63-20.27c2.45-8.85,4.51-17.27,7.59-25.97,6.67-18.77,10.57-34.31,5.92-54.71-2.79,3.56-1.21,12.03-2.62,19.11Z"/>
        <path class="cls-1" d="M218.82,556.31c2.01,8.95,3.42,11.2,11.98,14.02,7.42,2.47,14.55,1.89,22.33-.15l1.72-7.25c-12.46,5.34-24.49-1.26-36.04-6.62Z"/>
        <path class="cls-1" d="M232.77,615.24l.75,6.04c1.41.51,2.84.99,4.24,1.48l10.21-1.5c.75-2.13,1.29-4.46,1.36-5.94-6.33.66-10.45.63-16.56-.07Z"/>
        <path class="cls-1" d="M232.11,543.02c-7.37-1.77-13.68-4.12-20.37-9.24,1.41,3.61,2.33,8.24,5.31,10.91,9.21,8.12,27.65,12.08,37.98,5.07.49-.9.36-3.44.22-4.85-8.15,1.6-15.33-.02-23.13-1.89Z"/>
        <path class="cls-1" d="M229.64,597.2c-.1,2.5.51,7.3,3.61,8.2,4.32,1.24,9.6-.1,14.28-1.43,1.89-.56,2.38-3.23,2.06-5.38-6.45,2.18-13.02,1.07-19.96-1.38Z"/>
        <path class="cls-1" d="M234.42,581.38l-9.09-3.3,1.82,9.34c6.55,1.72,12.44,2.35,19.16,1.53l4.68-3.13c.92-.61,1.43-3.81,1.33-4.9-5.84,2.04-11.98,2.59-17.9.46Z"/>
        <path class="cls-1" d="M410.98,493.11c8.05-4.17,15.08-9.58,22.36-15.11,9.48-7.25,17.95-15.88,23.5-26.63,10.94-21.17,10.96-45.71,4.58-68.58l-.87,11.98c-.7,10.06-2.13,19.59-5.84,29.08-4.29,11.01-11.47,20.52-20.56,28.25-18.21,15.47-37.59,19.59-45.74,25.32l-17.27,12.08c-2.4,1.67-5.5,1.89-7.93-.05l-10.79-8.61c-14.21-11.32-33.37-14.87-51.8-29.88-12.76-10.43-21.73-24.1-23.33-40.79-.97-10.33.46-19.86,1.82-30.48-10.45,19.67-13.8,43.19-3.9,63.22,9.72,19.62,28.06,32.4,46.95,42.73,9.14,5.02,16.85,10.72,25.03,17.24,4.53,3.61,9.77,8.51,15.69,9.36,7.98,1.14,16-2.55,22.87-6.09l25.24-13.05Z"/>
        <path class="cls-1" d="M459.02,501.89l-4.32,4.9c-6.72,6.38-13.94,11.66-21.99,16.2l-17.19,9.72-12.44,7.06c-.19.12-1.26,0-1.24-.22l.15-1.09c3.73-5.29,8.1-9.58,13.22-13.6l25.37-19.52c15.37-11.81,29.12-29.44,29.92-50-8.03,15.67-22.72,35.31-37.66,42.97l-15.57,7.98-10.21,4.44-20.44,8.39c-5.63,2.3-11.11,6.38-14.14,11.83l-5.26,12.78,8.37-.44c1.99-.12,3.59-1.31,5.38-2.55l9.24-6.43,1.77-.7c.44-.17,1.02,1.45.63,1.94l-10.6,12.97c-2.45,3.01-.92,8.22-.48,11.66l2.76,21.44,1.65,31.96,1.87,22.87c4.32-.63,8.61-1.33,12.85-2.16,6.96-1.29,13.82-2.81,20.59-4.54,3.01-.78,5.99-1.6,8.97-2.45.39-1.14.51-2.62.58-4.15-11.3,1.09-22.26-2.13-32.35-8.17-2.55-1.5-5.94-3.27-6.26-6.69-.07-1.02,2.76-1.46,3.88-1.04,10.02,3.83,20.15,5.82,30.87,5.02,1.89-.12,4.63-.82,6.16-1.99,1.38-1.04,1.31-4.49,1.02-5.94-10.82,1.62-20.56-.32-30.26-4.1-4.85-1.89-11.37-4.85-10.23-7.54.27-.63,1.87-1.29,2.57-1.21l12.15,1.48c6.43.8,12.44,1.48,18.77.22l10.45-2.06.9-5.92c-12.93,2.91-31.02.51-42.92-4.66-.48-.22-1.89-1.72-1.43-1.99l2.18-1.33,28.59-1.16c6.16-.78,11.76-2.04,17.39-4.73l2.11-9.34c-6.94,2.96-13.9,4.46-21.44,5.6-5.82.87-11.74,1.87-17.56.99-1.58-6.11,18.24-11.01,26.43-14.45l12.73-5.33c1.45-.63,3.61-2.35,4-3.98l2.11-9.12c.02-.19-.58-1.53-.78-1.43l-.99.51-11.86,5.87c-10.11,5.02-19.98,9.24-29.54,15.37-4.73,3.01-11.06,4.95-11.08,3.57l-.05-2.09c12.32-9.29,24.98-17.31,38.24-25.27,5.94-4.17,12.42-7.49,17.29-12.83,4.22-4.61,4.95-11.06,7.64-16.61.48-.85.34-1.84-.51-.92Z"/>
        <path class="cls-1" d="M254.81,419.37c3.13-15.2,8.68-29,15.23-43l9.38-17.61-5.46-4.22c-10.43,15.5-18.72,32.4-24.59,50.54-9.63,29.83-11.79,68.46-2.55,98.38,2.69,8.68,8.61,21.19,14.62,27.31-5.19-16.64-9.55-33.15-11.37-50.54-2.13-20.69.56-40.62,4.73-60.87Z"/>
        <path class="cls-1" d="M349.63,519.16l-19.45-10.69-21.78-13.41c-8.95-5.53-17.87-10.04-25.34-17.17-12.15-11.54-18.67-26.97-20.66-43.84-.73,1.62-1.58,4-1.72,5.87-.73,8.97-.9,18.04-.12,26.87,8,10.74,17.44,19.11,27.69,27.35,9.14,7.35,17.58,14.77,25.34,23.52l4.87,6.57c1.84,2.47,3.18,5.29,4.12,8.34-5.65-1.29-8-5.17-11.54-8.37l-8.39-7.64-35.72-29.8-6.43-5.6c.58,7.06.99,14.04,3.23,20.69,5.94,1.19,10.69,3.37,15.71,6.5,10.43,6.55,19.81,14.26,28.64,22.84,4.07,3.95,9.65,6.55,11.37,12.97l-20.47-13.9c-7.69-5.21-15.81-9.22-24.06-13.46l-8.29-3.44c.61,5.14,1.94,9.97,4.2,14.91l12.93,5.19,19.52,9.21,24.42,18.45.85,2.13c.24.61-1.77,1.16-2.59,1.24l-17.22-9.14c-4.87-2.84-9.8-5.24-15.13-6.89l-19.96-6.14c.36,3.23.82,5.65,1.89,8.08,10.86,2.93,20.05,7.44,29.39,13.46l19.47,12.59c.53.32,1.14,1.7,1.14,2.28-.02.75-1.99,1.14-2.76.87l-17.36-6.31-10.5-4.07-17.9-6.84,1.7,10.38c4.9,2.69,9.75,4.78,15.2,6.11l13.53,3.23,15.06,4.12c-.44,1.53-2.01,3.25-3.78,3.56-15.33,2.62-22.96,1.92-38-4l1.7,9.36c9.92,5.29,20.69,6.62,31.69,3.98,2.16-.51,5.46-1.36,7.35-.29,5.09,2.86-15.96,18.75-38.1,7.37l-.24,6.91c8.41,5.07,21.95,4.32,31.77,1.6,1.48-.41,3.81-.32,5.04.44-3.37,10.86-24.57,13.6-35.87,9.24l.15,5.82c9.43,3.15,20.42,1.75,30.43-.41.7-.15,2.43.27,2.96.7.56.41.36,2.5-.15,3.01-1.21,1.16-4.29,3.01-6.21,3.01l-15.91.02c9,1.28,18.14,2.15,27.36,2.67-.12-.91,0-1.84.36-2.67h-.17s1.7-14.77,1.7-14.77c2.11-18.36,4.44-36.16,8.75-54.13l2.06-12.12c.85-5.02-.07-9.43-2.21-14.11l-5.31-11.62c-.19-.39.8-1.94,1.09-1.77l1.89,1.16,15.67,15.71c6.04-3.01,10.67-8.73,10.6-15.47-.05-4.68-3.61-8.15-7.52-10.28Z"/>
        <path class="cls-1" d="M233.66,347.91c.65-3.27,1.94-7.03,3.32-9.99l7.06-15.11c-13.73,6.62-18.02,18.87-18.65,33.13l-.68,16.03c-.15,2.89-1.45,5.75.29,8.71,4.12-11.11,6.43-21.58,8.66-32.76Z"/>
        <path class="cls-1" d="M284.47,96.07c1.46,1.67,2.55,4.34,4.22,5.84,4.61-6.11,9.26-11.52,14.62-17.46,1.58-1.75,2.11-4.51-.34-5.84l-5,5.38-4.75,5.65c-2.89-7.71-5.38-14.36-7.13-21.99-1.7-7.49-3.08-14.82-6.38-21.8-5.6-11.91-15.67-20.42-28.06-24.78-1.6-.56-4.2.58-4.37,2.35-.63,6.33-1.45,12.59-.95,19.06,2.96,38.15,29.83,44.09,38.12,53.59ZM255.37,38.94l8.29,6.72c-1.07-3.83-2.09-7.49-2.74-12.37,10.99,8,17.73,19.25,18.19,32.66.15,4.17,2.21,8.25,2.98,12.29l1.43,7.61c-12.46-5.58-20.39-13.36-25.75-25.41l3.32-.58c-3.1-6.91-6.23-12.32-5.72-20.93Z"/>
        <path class="cls-1" d="M304.74,77c.35,0,.72-.07,1.06-.23,1.28-.59,1.83-2.09,1.25-3.37-7.29-15.88-5.87-22.02-4.23-29.13.22-.95.44-1.91.65-2.91,3.53,2.59,8.09,6.13,8.16,6.18l4.49,3.49-.99-14.18,4.99,8.56-.49-10.35c-.08-1.61-.17-3.47-.25-5.31.42.69.76,1.24.93,1.53l4.58,7.85.16-9.08c.04-2.53.09-4.68.2-6.77l4.4,8.65,1.29-14.22,3.2,4.01,1.11-6.28,3.33,5.66,2.39-7.41c.31,1.61.65,3.25,1.25,4.8l1.98,5.13,2.62-4.84c.24-.44.81-1.58,1.47-2.9l3.64,14.44,3.44-9.27c.17,2.53.13,5.11-.1,7.9l-.71,8.66,7.93-10.4-.78,19.44,6.65-11.04-1.43,15.59,7.88-8.97c.57,1.47,1.29,3,2.02,4.57,1.59,3.4,3.39,7.24,2.99,9.24l-4,17.48c-.31,1.37.54,2.73,1.91,3.04,1.36.31,2.73-.54,3.04-1.91l4.02-17.54c.75-3.71-1.34-8.16-3.35-12.47-1.37-2.93-2.79-5.95-2.78-7.74l.03-6.79-5.28,6.01.3-3.26.63-17.05-6.76,11.23.63-15.73-7.72,10.13c-.19-3.6-.75-7.09-1.73-10.85l-2.03-7.82-3.87,10.43-3.01-11.97-3.05,6.21c-.32.65-.8,1.62-1.33,2.7-.47-2.27-1.1-4.5-2.48-6.3l-2.95-3.85-2.83,8.76-4.57-7.77-1.55,8.76-4.07-5.11-.84,9.26-3.79-7.45-1.25,7.66c-.45,2.74-.71,5.15-.87,7.44-.23-.36-.38-.59-.4-.63l-6.15-8,.18,7.76c0,.4.12,2.91.25,5.74-.12-.12-.24-.25-.37-.38l-4.84-4.96,1.33,19.01c-2.62-1.98-5.71-4.28-7.29-5.28l-3.43-2.17-.45,4.04c-.26,2.3-.72,4.32-1.22,6.45-1.7,7.35-3.45,14.94,4.56,32.4.43.93,1.35,1.48,2.31,1.48Z"/>
        <path class="cls-1" d="M376.5,77.18c-.34-.12-1.31.73-1.36,1.09l-.92,5.97-10.5-7.2c-1.87-1.29-2.11-1.87-2.21-4.41-.19-6.28-.82-12.3-2.09-18.92-2.67,7.93-2.76,15.47-2.45,23.18l9.21,8.41,13.43,14.02c5.26,5.5,8.08,12.66,11.28,19.52,4.83,10.4,6.38,21.66,3.4,32.76-.61,2.28-1.62,4.12-3.18,6.11-1.7-2.55-1.72-4.07-1.26-6.45,1.41-7.66,1.33-16.34-2.81-23.23l-5.53-9.26c-3.71-6.18-6.21-13.48-11.59-18.41l-15.4-14.09-5.82-5.63c-.92,3.52.36,5.65,2.35,7.76l9.07,9.68c6.98,7.44,13.68,14.99,18.65,24.1l7.06,12.93c5.12,9.36,1.5,17.58-.61,18.07-2.98.66-7.47-11.81-9.94-17.51l-5.07-11.64c-2.13-4.95-6.38-8.56-10.14-12.63l-16.03-17.22c-.58-.63-2.69-1.09-3.35-1.14,7.23,13.65,19.62,22.75,26.7,36.52,3.76,7.32,6.09,14.82,9.09,22.65-2.4,3.25-5.19,5.21-8.63,6.96l-.1-4.44-11.11-21-7.15-12.29c-4.12-7.03-8.17-13.73-13.92-20.13,1.75,6.91,5.58,12.68,8.88,19.08l7.32,14.16c4.9,9.51,13.53,20.1,8.8,28.91l-6.26,11.66c-2.43,5.82-5.77,9.87-9.65,14.69-12.39,15.45-20.56,33.66-26.38,52.53-.75,2.47-1.43,5.02.56,7.08,3.81-13.22,8.41-25.1,15.35-36.67l17.27-22.21c.58-.39,2.04-1.14,2.21-.65.19.49.22,1.67,0,2.16l-6.43,13.27c6.21-2.81,11.93-13.17,17.05-13.24l11.18-.15c10.82-.12,6.3-10.67,13.82-20.52,1.04,8.27-2.18,15.71-1.62,23.74l1.87,27.45c1.19,17.29-2.26,33.46-9.07,49.93,12.05-9.51,17.65-31.09,18.45-45.93,1.29-24.06,3.13-47.41,6.4-71.17.61-4.51.51-8.63-.53-12.73l-2.64,9.43c-2.09,7.49-2.74,15.03-3.23,22.99l-2.89,47.31-1.29,18.11c-.1,1.14-.95,2.91-1.72,3.66l-.29-38.12c-.1-9.94.27-19.59.73-29.66.19-4.63-.75-9.68.32-14.04l5.14-21.44c1.33-10.65-2.62-22.58-8.73-31.82,2.98-4.53,6.26-9.09,10.11-13.12,3.35-3.52,19.64-9.46,29.05-29.78,6.55-14.14,7.98-29.46,4.58-44.5-12.83,3.1-26.82,14.26-32.4,25.24-3.13,6.16-5.24,12.83-6.33,19.64-1.48,9.12-3.59,17.8-8.83,25.75l-7.81-13.73c-.34-.58-1.6-1.31-2.09-1.48ZM385.52,169.77c-1.07,3.59-2.45,8.66-6.52,10.38-5.6,2.4-12.08,1.33-17.63.51-1.21-.17-2.91,1.58-4.22,2.28-3.32,1.82,5.12-16.44,14.43-21.73,6.4-4.49,14.14-3.73,18.96,2.28l.19,1.84c.22,1.77-3.86-.22-5.21,4.44ZM403,59.91c1.89-9.22,7.2-16.37,13.99-22.12l3.59-3.01c.24,1.5.29,3.37-.05,4.29l-3.78,10.04,8.17-5.58c-.19,6.33-3.76,11.35-7.32,17.53l6.35-2.45c-1.77,7.61-6.45,16.2-12.13,21.46-4.61,4.27-9.31,8.68-15.81,10.45,3.08-10.82,4.95-20.56,6.98-30.63Z"/>
        <path class="cls-1" d="M193,465.86l-5.29-6.48c1.55,18.96,13.31,33.25,28.74,43.75l-7.61-23.43-5.82-28.28c-2.74-13.26-6.5-25.58-11.23-38.15l-5.38-19.55c-1.89,6.43-1.5,13.02-1.29,19.84.19,5.8,1.24,11.08,3.18,16.54l4.41,12.32,4.92,13.85,5.63,18.55c.36,1.24.15,2.57-.63,3.71l-9.63-12.68Z"/>
        <path class="cls-1" d="M204.95,405.91l4.36,20.66c1.82-8.37,4.2-16.68,3.32-25.12l-2.96-28.3c-1.04-10.14,1.77-26.41,5.99-36.64-5.36,5.55-8.71,12.12-11.37,18.84-3.86,9.7-4.39,20.13-3.25,30.41l3.9,20.15Z"/>
        <path class="cls-1" d="M251.05,530.92c-8.95-10.62-15.16-20.98-17.97-33.93-2.13-10.16-4.73-20.03-5.38-30.56-1.92-30.36,5.21-59.49,17.17-87.03,5.77-13.31,10.74-26.14,19.11-38.02,1.55-2.26.65-4.41-.48-6.6-2.16-4-5.09-8.88-6.5-7.32l-1.12,1.24-9.24,28.83-7.93,16.3c-15.79,32.42-23.84,65.26-18.79,101.7,3.08,22.24,11.01,43.92,31.14,55.39Z"/>
        <path class="cls-1" d="M240.36,533.39l-7.44-6.69c-2.91-2.33-5.07-6.4-8.27-8.39l-21.9-13.58c1.26,3.95,2.43,8.32,5,11.69,1.75,2.3,4.73,3.9,6.94,5.77,7.4,6.21,15.93,10.21,25.68,11.2Z"/>
        <path class="cls-1" d="M376.74,165.19c-5.79.24-10.4,8.99-10.4,8.99.9-1.7,11.32,1.55,13.33-.6,2.01-2.15,3.75-8.44,3.75-8.44,0,0-.9-.2-6.68.05Z"/>
        <path class="cls-1" d="M274.28,178.12l4.01.13s-5.01-12.37-9.17-14.08l2.19,11.41c.28,1.44,1.51,2.49,2.97,2.54Z"/>
      </g>
    </g>
  </g>
</svg>