<?xml version="1.0" encoding="UTF-8"?>
<svg id="Layer_2" data-name="Layer 2" xmlns="http://www.w3.org/2000/svg" viewBox="0 0 1091.47 662.61">
  <defs>
    <style>
      .cls-1 {
        fill: #906d2a;
      }
    </style>
  </defs>
  <g id="Layer_1-2" data-name="Layer 1">
    <g>
      <g>
        <path class="cls-1" d="M358.64,79.82h126.38s-13.88,63.44-64.43,138.78c0,0,46.59-5.45,59.97-23.29-1.49,36.18-2.97,70.87-2.97,70.87h-128.86s13.38-51.05,42.13-98.63c28.75-47.58,19.33-38.66,19.33-38.66,0,0-27.76-.5-54.52,23.79,6.44-36.18,2.97-72.86,2.97-72.86Z"/>
        <path class="cls-1" d="M577.46,84.43c-77.69,4.97-73.08,103.58-73.08,103.58,0,0,4.48,78.17,64.56,81.23,48.6,2.48,60.31-9.58,60.31-9.58l4.97-53.92s-19.87,21.64-40.44,18.09c-20.57-3.55-25.9-27.67-25.9-27.67l79.82-3.9s18.8-108.9-70.24-107.84ZM595.19,163.89l-28.73-.35s1.06-31.57,15.96-31.57,12.77,31.93,12.77,31.93Z"/>
        <path class="cls-1" d="M675.57,348.73c-77.69,4.97-73.08,103.58-73.08,103.58,0,0,4.48,78.17,64.56,81.23,48.6,2.48,60.31-9.58,60.31-9.58l4.97-53.92s-19.87,21.64-40.44,18.09c-20.57-3.55-25.9-27.67-25.9-27.67l79.82-3.9s18.8-108.9-70.24-107.84ZM693.3,428.19l-28.73-.35s1.06-31.57,15.96-31.57,12.77,31.93,12.77,31.93Z"/>
        <path class="cls-1" d="M752.7,91.52c-23.41,1.42-35.47,29.09-35.47,29.09l7.8-89.39-67.4,10.64c20.57,63.85-.71,231.64-.71,231.64l58.89-.35-.36-27.67s17.74,33.35,41.86,31.57c24.12-1.77,45.05-32.28,48.6-91.88,3.55-59.6-29.8-95.07-53.21-93.65ZM715.09,185.53c0-54.63,28.73-69.88,30.15-2.84,1.42,67.05-30.15,54.83-30.15,2.84Z"/>
        <path class="cls-1" d="M815.48,95.78l58.53,1.06v23.06s12.42-29.44,45.41-27.67c4.97,31.22,14.54,91.17,14.54,91.17,0,0-39.38-39.38-53.21-21.28-13.83,18.09,2.48,111.39,2.48,111.39l-68.46.71s19.87-47.53.71-178.43Z"/>
        <path class="cls-1" d="M476.56,355.82l58.53,1.06v23.06s12.42-29.44,45.41-27.67c4.97,31.22,14.54,91.17,14.54,91.17,0,0-39.38-39.38-53.21-21.28-13.83,18.09,2.48,111.39,2.48,111.39l-68.46.71s19.87-47.53.71-178.43Z"/>
        <path class="cls-1" d="M1090.52,98.5l-68.58-.24,4.26,17.03s-7.27-21.28-33.52-21.11c-26.25.18-51.61,35.65-50.91,91.7.59,46.87,16.67,94.01,49.31,92.94,30.49-.99,40.09-30.15,40.09-30.15l.36,26.61,59.95-.35s-23.89-98.14-.95-176.42ZM1031.87,186.59c-1.06,60.31-28.02,58.89-28.38.71-.36-59.6,29.5-64.21,28.38-.71Z"/>
        <path class="cls-1" d="M376.29,359.37s.35-29.8-5.68-44.34c27.67-8.16,66.69-23.41,66.69-23.41l-5.32,66.69,35.83,1.06-11,64.92s-18.09-17.38-25.19-18.09c0,0-1.54,111.03,7.92,129.95-28.38,0-70.95-.47-70.95-.47,0,0,13.24-38.78,10.88-128.18-3.78-.47-8.99-2.54-28.38,15.55-.24-14.07-3.55-64.15-3.55-64.15l28.73.47Z"/>
        <path class="cls-1" d="M747.7,295.52h69.17s-8.51,27.31-8.87,113.87c4.26-13.13,14.19-31.22,14.9-53.92,16.32-.35,68.82-.35,68.82-.35l-46.12,68.82s28.38,87.62,44.34,106.78c-43.28,1.77-59.95,2.13-59.95,2.13,0,0-14.9-58.89-14.54-67.75-4.79,5.97-7.33,9.22-7.33,9.22l7.18,57.85-67.96-.03s17.38-64.56.35-236.61Z"/>
      </g>
      <g>
        <path class="cls-1" d="M385.33,598.93c-9.16-3.59-13.73-7.29-13.73-11.1,0-5.31,3.61-7.96,10.82-7.96,3.06,0,5.72.56,7.96,1.68,2.25,1.12,4.9,2.78,7.97,4.95l11.84-10.41c-9.87-8.24-18.79-12.35-26.75-12.35s-14.59,2.33-19.86,6.99c-5.27,4.66-7.91,10.5-7.91,17.5,0,5.65,1.85,10.39,5.57,14.24,3.71,3.84,10.39,7.64,20.06,11.39,9.66,3.75,14.5,7.98,14.5,12.67,0,2.65-1.38,4.99-4.14,6.99-2.76,2-5.98,3.01-9.65,3.01-5.31,0-10.42-2.38-15.32-7.15l-13.99,6.74c7.62,11.03,17.39,16.54,29.31,16.54,7.83,0,14.63-2.63,20.42-7.9,5.79-5.27,8.68-11.44,8.68-18.51,0-6.05-2.01-11.22-6.02-15.51-4.02-4.28-10.61-8.22-19.76-11.81Z"/>
        <path class="cls-1" d="M499.94,583.23c-3.27-5.79-7.86-10.48-13.78-14.09-5.92-3.6-12.19-5.41-18.79-5.41-10.69,0-20,4.41-27.92,13.22-7.93,8.82-11.89,19.11-11.89,30.88,0,12.46,3.93,23.04,11.79,31.76,7.86,8.71,17.34,13.07,28.44,13.07,12.79,0,23.52-6.37,32.16-19.09v16.74h17.77v-84.24h-17.77v17.15ZM494.11,628.21c-5.53,5.54-12.14,8.32-19.85,8.32s-14.39-2.79-19.84-8.37c-5.46-5.58-8.19-12.35-8.19-20.32,0-7.35,2.8-13.75,8.39-19.19,5.59-5.45,12.14-8.17,19.64-8.17s14.32,2.74,19.85,8.22c5.52,5.48,8.29,12.07,8.29,19.76s-2.76,14.21-8.29,19.76Z"/>
        <path class="cls-1" d="M561.46,543.69c-4.94,5.7-7.4,13.35-7.4,22.92v-.54h-15.52v16.23h15.52v68h17.77v-68h23.38v-16.23h-23.38v-.66c0-4.14.88-7.37,2.66-9.67,1.77-2.31,4.22-3.46,7.35-3.46,3.74,0,8.2,1.73,13.38,5.21v-17.97c-5.24-2.93-9.91-4.39-13.99-4.39-8.24,0-14.82,2.85-19.76,8.56Z"/>
        <path class="cls-1" d="M684.96,583.23c-3.27-5.79-7.86-10.48-13.78-14.09-5.92-3.6-12.19-5.41-18.79-5.41-10.69,0-20,4.41-27.93,13.22-7.93,8.82-11.89,19.11-11.89,30.88,0,12.46,3.93,23.04,11.79,31.76,7.86,8.71,17.34,13.07,28.44,13.07,12.79,0,23.52-6.37,32.16-19.09v16.74h17.77v-84.24h-17.77v17.15ZM679.13,628.21c-5.53,5.54-12.14,8.32-19.85,8.32s-14.39-2.79-19.84-8.37c-5.46-5.58-8.19-12.35-8.19-20.32,0-7.35,2.8-13.75,8.39-19.19,5.59-5.45,12.14-8.17,19.64-8.17s14.32,2.74,19.85,8.22c5.52,5.48,8.29,12.07,8.29,19.76s-2.76,14.21-8.29,19.76Z"/>
        <path class="cls-1" d="M760.78,568.37c-3.78,3.1-7.64,8.12-11.59,15.06v-17.36h-17.36v84.24h17.77v-46.66c0-6.27,2.03-11.49,6.08-15.67,4.05-4.19,9.07-6.28,15.06-6.28,1.09,0,3.34.34,6.74,1.02l5.41-17.77c-3.2-.82-5.65-1.22-7.35-1.22-6.06,0-10.98,1.55-14.76,4.64Z"/>
        <rect class="cls-1" x="800.75" y="566.08" width="17.56" height="84.24"/>
        <path class="cls-1" d="M890.61,610.74c-4.02-4.28-10.61-8.22-19.76-11.81-9.16-3.59-13.73-7.29-13.73-11.1,0-5.31,3.61-7.96,10.82-7.96,3.06,0,5.72.56,7.96,1.68,2.25,1.12,4.9,2.78,7.97,4.95l11.84-10.41c-9.87-8.24-18.79-12.35-26.75-12.35s-14.59,2.33-19.86,6.99c-5.27,4.66-7.91,10.5-7.91,17.5,0,5.65,1.85,10.39,5.57,14.24,3.71,3.84,10.4,7.64,20.06,11.39,9.66,3.75,14.5,7.98,14.5,12.67,0,2.65-1.38,4.99-4.14,6.99-2.76,2-5.98,3.01-9.65,3.01-5.31,0-10.42-2.38-15.32-7.15l-13.99,6.74c7.62,11.03,17.39,16.54,29.31,16.54,7.83,0,14.63-2.63,20.42-7.9,5.79-5.27,8.68-11.44,8.68-18.51,0-6.05-2.01-11.22-6.02-15.51Z"/>
      </g>
      <g>
        <path class="cls-1" d="M138.65,304.6c-7.16-2.21-15.7,14.98-8.41,28.98.6,1.13,2.38,2.56,3.47,2.66,5.33.55,11.83-6.76,13.97-14.45,1.98-7.19-1.51-14.86-9.04-17.19ZM134.73,333.33c-2.66.63-4.91-3.85-4.67-5.98.81-7.82,2.19-16.29,8.83-18.78,4.28,2.39,5.38,5.91,5.43,10.48.05,5.81-2.53,12.62-9.58,14.28Z"/>
        <path class="cls-1" d="M240.89,199.18l-5.64,44.54c-.99,7.74-4,14.83-6.45,22.2-3.47,10.48-9.27,19.26-17.45,27.02-6.87,6.54-14.23,12.77-22.41,17.82-7.76,4.78-18.12,9.83-19.12,18.6,5.43.1,9.53.1,13.53-1.73,8.12-3.69,15.54-8.8,21.21-15.58,6.69-8.02,13.19-16.06,17.5-25.44l9.77-21.19c2.82-6.13,4.62-12.69,5.85-19.33l4.65-24.89c3.66-14.86,5.38-29.61,2.66-44.74-2.53,7.97-3.13,15.08-4.1,22.72Z"/>
        <path class="cls-1" d="M138.86,363.29c8.46-5.3,13.61-13.9,16.24-23.13l-9.27,12.54c-4.18,5.68-11.18,10.18-18.52,11.03-7.99.91-15.59-.05-24.24-.28,10.97,5.5,24.71,6.79,35.78-.18Z"/>
        <path class="cls-1" d="M131.49,171.32c-1.31,7.54-.39,15.06-1.18,22.65l-1.62,15.91c-2.14,14.81-5.85,28.68-10,43.11.08,1.96,1.04,4.8,1.85,6.96,1.65-4.68,2.77-9.53,3.92-14.6l3.63-15.96c4.54-20.06,7.37-39.99,10.11-60.35l2.79-13.98c.86-4.25,1.67-8.5,4.05-12.12,2.32-3.62,4.2-7.19,4.7-11.46-2.48,3.57-5.72,6.64-7.89,10.48-5.07,9.1-8.62,19.1-10.37,29.36Z"/>
        <path class="cls-1" d="M114.25,243.82c-1.93,5.38-2.79,10.68-1.41,16.01l2.59-7.89,4.36-20.11c3.32-15.31,2.82-30.99,1.41-46.55-1.28-13.95-4.99-19.15,5.51-34.29l8.93-12.9c3.94-5.68,7.36-11.66,9.87-18.15-7.18,4.55-9.72,11.61-14.26,17.29l-10.68,13.37c-4.15,5.2-6.92,11.09-9.4,17.34-1.02,2.54.63,5.73,1.57,8.22,6.53,17.12,5.93,27.52,5.51,44.89-.21,7.84-1.33,15.33-4,22.75Z"/>
        <path class="cls-1" d="M214.57,234.95l-1.83-22.5c-.05-.65-.73-2.41-1.38-2.36-2.87.15-4.34,3.95-10.32,3.37-5.25-.48-9.4.55-14.13,2.44-23.37,9.28-36.64,24.16-38.78,48.89,3.08,12.59,6.24,24.84,6.92,37.81l7.18,10.78c4.91-3.17,8.36-10.36,6.14-15.69-1.88-4.5-7.16-3.62-11.1-3.29-2.61-2.31-3.71-8.77-.57-11.29,3.73-2.99,15.36-3.37,18.99,2.36,1.62,2.54,1.98,5.93,1.02,8.62l-4.57,12.77c10.34-7.57,11.31-20.69,10.6-32.85-.44-7.72-10.84-6.91-19.64-4.73-4.91,1.23-6.53,5.68-8.46,4-3.11-2.71-.5-12.32,4.91-16.11,4.75-3.37,9.58-4.22,15.7-2.94,4.99-.7,13.82-1.26,16.53,4.25,3.47,6.99.1,15.53-2.74,21.69-1.28,2.79-3.03,4.93-2.61,7.92,8.17-6.74,11.94-15.81,13.82-25.39.89-4.55-.16-9.15-.73-13.93-.37-2.99-2.01-6.79-5.82-6.89-15.38-.43-28.86.08-37.22,12.54-1.38,2.06-1.46,4.4-4.26,5.76-.39-12.62,7.52-23.1,19.14-28.1,4.6-1.99,9.53-4.07,14.6-4.42l15.1-1.08c2.22-.15,6.48,2.04,7.03,4.12,1.41,5.43,1.49,10.53,1.7,16.06.44,12.24-2.93,24.06-10.11,34.11l-12.64,17.75c4.91-2.19,8.64-5.68,12.35-9.78,14.29-15.81,16.87-33.16,15.2-53.89Z"/>
        <path class="cls-1" d="M88.97,321.14c-2.22-5.38-3.79-10.66-4.6-16.21-1.67,3.02-3.32,7.79-1.96,10.83l5.88,13.12c.86,1.96-.42,5.25-.97,7.62,3.92.4,4.36-8.77,1.65-15.36Z"/>
        <path class="cls-1" d="M95.68,235.45c-.21,1.21-.21,2.54-.1,3.62l2.35,19.56c.08.55.89,1.78,1.38,2.01,2.74-9.02,3.5-21.19-3.63-25.19Z"/>
        <path class="cls-1" d="M103.94,254.95c1.75-10.71,2.12-20.29,1.72-30.27-1.2-7.09-5.41-14.78-11.96-13.93-.42,3.59-.39,7.47.81,10.51,14.65,7.99,6.79,19.88,9.43,33.68Z"/>
        <path class="cls-1" d="M231.33,432.95l-31.63,18.83c-5.07,3.02-11.1,3.95-16.61.88-12.07-6.71-23.64-13.75-35.05-21.77-7.23-5.1-13.32-11.86-18.2-19.1-6.84-10.13-9.53-21.92-9.51-34.16l-5.77-.45c-3.08,13.27-2.53,32.38,2.56,44.47,3.97,9.5,10.21,17.75,18.88,23l23.53,14.18,27.92,18.15c4.99,3.24,12.04,2.64,16.22.1,14.21-8.55,27.79-17.22,41.11-26.97l13.06-11.11c6.61-5.66,11.15-12.44,15.36-19.98,6.53-11.64,9.58-24.26,9.48-37.6l-.18-23.58c-.08-10.91-2.4-21.29-6.35-31.6l-.57,19.86c-.08,13.67-1.15,26.95-4.73,40.22-5.59,20.79-20.87,35.54-39.51,46.65Z"/>
        <path class="cls-1" d="M102.68,201.46c-.16-3.19,1.1-5.23,4.2-5.66,3.34,12.24,4.47,24.41,3.16,37.05-.78,7.62-2.98,14.58-2.61,22.95,3.94-10.86,4.75-22.27,5.33-34.04.47-10.23.26-20.41-2.35-30.37-2.43-9.23-7-17.37-11.18-26.29,3.76-8.57,8.78-15.48,14.78-22.22l28.02-31.32,5.33-5.68c-4.18-.15-9.82,5.71-12.93,9.48-9.27,11.16-18.7,21.49-29.75,31.04-7.16,6.16-7.91,13.07-13.97,13.57-2.79-4.37,1.51-12.07,5.2-17.14l16.32-22.5,8.59-11.86c5.67-7.82,12.38-14.38,20.92-19.58l-1.7-4.78c-9.04,6.26-15.15,13.55-21.39,21.59-4.2,5.43-7.68,10.66-10.81,16.77-4.81,9.35-11.41,17.42-17.52,26.02-2.74,3.87-3.53,8.57-3,13.1l5.56,3.82c5.67,7.09,10.19,14.45,12.07,23.35l-11.54-.88.99,9.33,8.28,4.25Z"/>
        <path class="cls-1" d="M246.17,261.14c-8.51,29.71-20.58,57.66-43.48,79.61l-11.6,9.02c-3.13,2.46-7.34,2.64-11.31,3.17-3.5.48-6.09.4-9.25-1.28l-8.88-4.73-5.22,14.76c11.73,7.37,25.15,10.83,36.62,4.5,19.04-10.53,38.13-36.32,45.73-55.8l6.56-16.74c5.75-17.47,13.03-46.58,8.02-64.1l-7.18,31.6Z"/>
        <path class="cls-1" d="M141.65,232.03c-2.85,7.99-5.33,15.48-7.18,23.75-.34,1.56-.39,2.72,1.1,3.87,2.61-4.45,3.92-7.82,5.01-12.09,4.34-17.09,10.89-32.83,19.87-48.06,4.31-7.34,7.97-14.63,13.48-21.12,2.85-3.37,5.14-6.79,3.71-11.44l-2.4-7.97-9.9-21.79c-2.92-6.41-4.41-12.85-6.11-19.88-2.79,4.52-1.62,9.53-.37,13.98l8.2,29.41c3.19,11.36-3.13,21.97-8.96,32.3-7.05,12.49-11.67,25.59-16.45,39.04Z"/>
        <path class="cls-1" d="M118.46,121.53c-2.09,2.72-5.56,4.78-5.25,8.97l7.55-8.24c6.01-8.52,12.72-16.14,20.53-23.23,1.25-1.16,2.3-2.46,2.4-4.3-6.53,2.99-10.79,7.82-14.83,13.15l-10.39,13.65Z"/>
        <path class="cls-1" d="M219.69,380.04c-7.05,6.01-14.68,10.91-22.43,15.89-6.87,4.42-14.47,5.51-21.83,1.81-11.88-5.96-21.6-13.78-30.58-23.7l-9.45,3.17c1.62,3.8,2.82,7.94,5.3,11.61,4.31,6.38,9.43,12.12,15.51,16.94,8.8,7.01,17.76,12.92,27.42,18.78,1.46.9,4.62,1.86,6.24,1.78,9.17-4.02,17.03-9.58,24.11-16.39l25.65-24.61c18.93-18.17,25.8-62.34,26.25-88.51.13-7.01-1.38-13.5-3-20.81l-1.1,7.64c-1.62,16.69-4.23,32.63-9.43,48.67-6.06,18.75-17.42,34.74-32.65,47.73Z"/>
        <path class="cls-1" d="M150.48,159.96c-2.66,13.02-5.04,25.59-8.51,38.41l-11,40.7-4.02,14.91c-.6,2.26-.37,4.98,1.38,6.64l4.36-15.81,6.06-21.01c2.64-9.17,4.86-17.9,8.17-26.92,7.18-19.46,11.39-35.57,6.37-56.71-3,3.69-1.31,12.47-2.82,19.81Z"/>
        <path class="cls-1" d="M36.5,576.66c2.17,9.28,3.68,11.61,12.9,14.53,7.99,2.56,15.67,1.96,24.05-.15l1.85-7.52c-13.42,5.53-26.38-1.31-38.81-6.86Z"/>
        <path class="cls-1" d="M51.52,637.74l.81,6.26c1.51.53,3.06,1.03,4.57,1.53l11-1.56c.81-2.21,1.38-4.63,1.46-6.16-6.82.68-11.26.65-17.84-.08Z"/>
        <path class="cls-1" d="M50.82,562.88c-7.94-1.83-14.73-4.27-21.94-9.58,1.51,3.74,2.51,8.55,5.72,11.31,9.92,8.42,29.77,12.52,40.9,5.25.52-.93.39-3.57.24-5.03-8.78,1.66-16.51-.03-24.92-1.96Z"/>
        <path class="cls-1" d="M48.15,619.04c-.1,2.59.55,7.57,3.89,8.5,4.65,1.28,10.34-.1,15.38-1.48,2.04-.58,2.56-3.34,2.22-5.58-6.95,2.26-14.02,1.11-21.49-1.43Z"/>
        <path class="cls-1" d="M53.3,602.65l-9.79-3.42,1.96,9.68c7.05,1.78,13.4,2.44,20.63,1.58l5.04-3.24c.99-.63,1.54-3.95,1.44-5.08-6.29,2.11-12.9,2.69-19.27.48Z"/>
        <path class="cls-1" d="M243.45,511.15c8.67-4.32,16.24-9.93,24.08-15.66,10.21-7.52,19.33-16.46,25.31-27.6,11.78-21.94,11.8-47.38,4.94-71.09l-.94,12.42c-.76,10.43-2.3,20.31-6.29,30.14-4.62,11.41-12.35,21.27-22.15,29.28-19.61,16.04-40.48,20.31-49.26,26.24l-18.59,12.52c-2.59,1.73-5.93,1.96-8.54-.05l-11.62-8.92c-15.3-11.74-35.94-15.41-55.78-30.97-13.74-10.81-23.4-24.99-25.12-42.28-1.04-10.71.5-20.59,1.96-31.6-11.26,20.39-14.86,44.77-4.2,65.53,10.47,20.34,30.22,33.58,50.56,44.29,9.85,5.2,18.15,11.11,26.95,17.87,4.88,3.74,10.53,8.82,16.9,9.7,8.59,1.18,17.24-2.64,24.63-6.31l27.19-13.52Z"/>
        <path class="cls-1" d="M295.19,520.25l-4.65,5.08c-7.23,6.61-15.02,12.09-23.69,16.79l-18.52,10.08-13.4,7.31c-.21.13-1.36,0-1.33-.23l.16-1.13c4.02-5.48,8.72-9.93,14.23-14.1l27.32-20.23c16.56-12.24,31.37-30.52,32.23-51.83-8.64,16.24-24.47,36.6-40.56,44.54l-16.77,8.27-11,4.6-22.02,8.7c-6.06,2.39-11.96,6.61-15.23,12.27l-5.67,13.25,9.01-.45c2.14-.13,3.87-1.36,5.8-2.64l9.95-6.66,1.91-.73c.47-.18,1.1,1.51.68,2.01l-11.41,13.45c-2.64,3.12-.99,8.52-.52,12.09l2.98,22.22,1.78,33.13,2.01,23.7c4.65-.65,9.27-1.38,13.84-2.24,7.5-1.33,14.89-2.92,22.17-4.7,3.24-.8,6.45-1.66,9.66-2.54.42-1.18.55-2.71.63-4.3-12.17,1.13-23.97-2.21-34.84-8.47-2.74-1.56-6.4-3.39-6.74-6.94-.08-1.06,2.98-1.51,4.18-1.08,10.79,3.97,21.7,6.03,33.25,5.2,2.04-.13,4.99-.86,6.63-2.06,1.49-1.08,1.41-4.65,1.1-6.16-11.65,1.68-22.15-.33-32.59-4.25-5.22-1.96-12.25-5.03-11.02-7.82.29-.65,2.01-1.33,2.77-1.26l13.08,1.53c6.92.83,13.4,1.53,20.21.23l11.26-2.14.97-6.13c-13.92,3.02-33.4.53-46.23-4.83-.52-.23-2.04-1.78-1.54-2.06l2.35-1.38,30.79-1.21c6.63-.81,12.67-2.11,18.73-4.9l2.27-9.68c-7.47,3.07-14.96,4.63-23.09,5.81-6.27.91-12.64,1.94-18.91,1.03-1.7-6.33,19.64-11.41,28.47-14.98l13.71-5.53c1.57-.65,3.89-2.44,4.31-4.12l2.27-9.45c.03-.2-.63-1.58-.84-1.48l-1.07.53-12.77,6.08c-10.89,5.2-21.52,9.58-31.81,15.94-5.09,3.12-11.91,5.13-11.94,3.7l-.05-2.16c13.27-9.63,26.9-17.95,41.19-26.19,6.4-4.32,13.37-7.77,18.62-13.3,4.54-4.78,5.33-11.46,8.23-17.22.52-.88.37-1.91-.55-.96Z"/>
        <path class="cls-1" d="M75.26,434.71c3.37-15.76,9.35-30.06,16.4-44.57l10.11-18.25-5.88-4.37c-11.23,16.06-20.16,33.58-26.48,52.39-10.37,30.92-12.69,70.96-2.74,101.98,2.9,9,9.27,21.97,15.75,28.3-5.59-17.24-10.29-34.36-12.25-52.39-2.3-21.44.6-42.1,5.09-63.09Z"/>
        <path class="cls-1" d="M177.38,538.15l-20.95-11.09-23.45-13.9c-9.64-5.73-19.25-10.41-27.29-17.8-13.08-11.97-20.11-27.95-22.25-45.45-.78,1.68-1.7,4.15-1.85,6.08-.78,9.3-.97,18.7-.13,27.85,8.62,11.14,18.78,19.81,29.83,28.35,9.85,7.62,18.93,15.31,27.29,24.38l5.25,6.81c1.98,2.56,3.42,5.48,4.44,8.65-6.09-1.33-8.62-5.35-12.43-8.67l-9.04-7.92-38.47-30.89-6.92-5.81c.63,7.31,1.07,14.55,3.47,21.44,6.4,1.23,11.52,3.49,16.92,6.74,11.23,6.79,21.34,14.78,30.84,23.68,4.39,4.1,10.39,6.79,12.25,13.45l-22.04-14.4c-8.28-5.4-17.03-9.55-25.91-13.95l-8.93-3.57c.65,5.33,2.09,10.33,4.52,15.46l13.92,5.38,21.02,9.55,26.3,19.13.91,2.21c.26.63-1.91,1.21-2.79,1.28l-18.54-9.48c-5.25-2.94-10.55-5.43-16.3-7.14l-21.49-6.36c.39,3.34.89,5.86,2.04,8.37,11.7,3.04,21.6,7.72,31.65,13.95l20.97,13.05c.57.33,1.23,1.76,1.23,2.36-.03.78-2.14,1.18-2.98.91l-18.7-6.54-11.31-4.22-19.27-7.09,1.83,10.76c5.28,2.79,10.5,4.95,16.38,6.33l14.57,3.34,16.22,4.27c-.47,1.58-2.17,3.37-4.07,3.69-16.51,2.71-24.73,1.99-40.92-4.15l1.83,9.7c10.68,5.48,22.28,6.86,34.13,4.12,2.32-.53,5.88-1.41,7.91-.3,5.48,2.97-17.18,19.43-41.03,7.64l-.26,7.16c9.06,5.25,23.64,4.47,34.21,1.66,1.59-.43,4.1-.33,5.43.45-3.63,11.26-26.46,14.1-38.63,9.58l.16,6.03c10.16,3.27,21.99,1.81,32.78-.43.76-.15,2.61.28,3.19.73.6.43.39,2.59-.16,3.12-1.31,1.21-4.62,3.12-6.69,3.12l-17.13.03c9.69,1.33,19.53,2.23,29.47,2.77-.13-.94,0-1.91.38-2.77h-.18s1.83-15.31,1.83-15.31c2.27-19.03,4.78-37.48,9.43-56.11l2.22-12.57c.91-5.2-.08-9.78-2.38-14.63l-5.72-12.04c-.21-.4.86-2.01,1.18-1.84l2.04,1.21,16.87,16.29c6.5-3.12,11.49-9.05,11.41-16.04-.05-4.85-3.89-8.45-8.1-10.66Z"/>
        <path class="cls-1" d="M52.49,360.63c.71-3.39,2.09-7.29,3.58-10.36l7.6-15.66c-14.78,6.86-19.4,19.56-20.08,34.34l-.73,16.62c-.16,2.99-1.57,5.96.31,9.02,4.44-11.51,6.92-22.37,9.32-33.96Z"/>
        <path class="cls-1" d="M107.2,99.58c1.57,1.73,2.74,4.5,4.54,6.06,4.96-6.33,9.98-11.94,15.75-18.1,1.7-1.81,2.27-4.68-.37-6.06l-5.38,5.58-5.12,5.86c-3.11-7.99-5.8-14.88-7.68-22.8-1.83-7.77-3.32-15.36-6.87-22.6-6.03-12.34-16.87-21.17-30.22-25.69-1.72-.58-4.52.6-4.7,2.44-.68,6.56-1.57,13.05-1.02,19.76,3.19,39.54,32.12,45.7,41.06,55.55ZM75.86,40.36l8.93,6.96c-1.15-3.97-2.25-7.77-2.95-12.82,11.83,8.3,19.09,19.96,19.59,33.86.16,4.32,2.38,8.55,3.21,12.74l1.54,7.89c-13.42-5.78-21.96-13.85-27.74-26.34l3.58-.6c-3.34-7.16-6.71-12.77-6.16-21.69Z"/>
        <path class="cls-1" d="M129.04,79.81c.38,0,.77-.08,1.14-.24,1.37-.61,1.97-2.17,1.34-3.49-7.86-16.46-6.33-22.83-4.56-30.2.24-.98.48-1.98.7-3.01,3.81,2.68,8.72,6.36,8.78,6.41l4.83,3.62-1.06-14.69,5.38,8.87-.53-10.73c-.08-1.67-.18-3.6-.27-5.51.46.71.82,1.29,1,1.58l4.93,8.13.17-9.41c.05-2.62.1-4.86.22-7.01l4.74,8.96,1.39-14.74,3.45,4.16,1.2-6.51,3.59,5.87,2.57-7.68c.33,1.67.7,3.37,1.35,4.98l2.14,5.32,2.82-5.01c.26-.46.87-1.63,1.59-3.01l3.92,14.97,3.7-9.61c.18,2.62.14,5.29-.11,8.19l-.77,8.97,8.54-10.78-.84,20.15,7.16-11.45-1.53,16.17,8.48-9.29c.62,1.52,1.39,3.11,2.18,4.73,1.71,3.52,3.65,7.51,3.22,9.58l-4.31,18.11c-.34,1.42.58,2.83,2.06,3.16,1.47.32,2.94-.56,3.28-1.98l4.33-18.18c.8-3.84-1.44-8.46-3.61-12.93-1.47-3.03-3-6.17-2.99-8.02l.03-7.04-5.68,6.23.32-3.38.68-17.67-7.28,11.64.68-16.3-8.31,10.5c-.2-3.74-.81-7.35-1.86-11.24l-2.19-8.11-4.17,10.81-3.25-12.41-3.29,6.44c-.34.67-.86,1.68-1.43,2.8-.5-2.35-1.18-4.66-2.67-6.53l-3.17-3.99-3.04,9.08-4.92-8.05-1.67,9.08-4.39-5.29-.91,9.59-4.08-7.72-1.35,7.94c-.48,2.84-.77,5.34-.94,7.72-.25-.38-.4-.61-.43-.65l-6.62-8.29.19,8.04c0,.42.13,3.01.27,5.95-.13-.13-.26-.26-.4-.4l-5.21-5.14,1.43,19.71c-2.82-2.06-6.15-4.44-7.85-5.47l-3.69-2.25-.49,4.18c-.28,2.39-.78,4.47-1.31,6.68-1.83,7.62-3.72,15.49,4.92,33.58.46.97,1.45,1.54,2.49,1.54Z"/>
        <path class="cls-1" d="M206.31,80c-.37-.13-1.41.75-1.46,1.13l-.99,6.18-11.31-7.47c-2.01-1.33-2.27-1.94-2.38-4.58-.21-6.51-.89-12.74-2.25-19.61-2.87,8.22-2.98,16.04-2.64,24.03l9.92,8.72,14.47,14.53c5.67,5.71,8.7,13.12,12.14,20.24,5.2,10.78,6.87,22.45,3.66,33.96-.65,2.36-1.75,4.27-3.42,6.33-1.83-2.64-1.85-4.22-1.36-6.69,1.51-7.94,1.44-16.94-3.03-24.08l-5.95-9.6c-4-6.41-6.69-13.98-12.48-19.08l-16.58-14.6-6.27-5.83c-.99,3.64.39,5.86,2.53,8.04l9.77,10.03c7.52,7.72,14.73,15.53,20.08,24.99l7.6,13.4c5.51,9.7,1.62,18.22-.65,18.73-3.21.68-8.04-12.24-10.71-18.15l-5.46-12.07c-2.3-5.13-6.87-8.87-10.92-13.1l-17.26-17.85c-.63-.65-2.9-1.13-3.6-1.18,7.78,14.15,21.13,23.58,28.75,37.86,4.05,7.59,6.56,15.36,9.79,23.48-2.59,3.37-5.59,5.4-9.3,7.21l-.1-4.6-11.96-21.77-7.7-12.74c-4.44-7.29-8.8-14.23-14.99-20.86,1.88,7.16,6.01,13.15,9.56,19.78l7.89,14.68c5.28,9.85,14.57,20.84,9.48,29.96l-6.74,12.09c-2.61,6.03-6.22,10.23-10.39,15.23-13.35,16.01-22.15,34.89-28.41,54.45-.81,2.56-1.54,5.2.6,7.34,4.1-13.7,9.06-26.02,16.53-38.01l18.6-23.03c.63-.4,2.19-1.18,2.38-.68.21.5.24,1.73,0,2.24l-6.92,13.75c6.69-2.92,12.85-13.65,18.36-13.72l12.04-.15c11.65-.13,6.79-11.06,14.89-21.27,1.12,8.57-2.35,16.29-1.75,24.61l2.01,28.46c1.28,17.92-2.43,34.69-9.77,51.76,12.98-9.85,19.01-32.23,19.87-47.61,1.38-24.94,3.37-49.14,6.89-73.78.65-4.68.55-8.95-.57-13.2l-2.85,9.78c-2.25,7.77-2.95,15.58-3.47,23.83l-3.11,49.04-1.38,18.78c-.1,1.18-1.02,3.02-1.85,3.8l-.31-39.52c-.1-10.31.29-20.31.78-30.74.21-4.8-.81-10.03.34-14.55l5.54-22.22c1.44-11.04-2.82-23.4-9.4-32.98,3.21-4.7,6.74-9.43,10.89-13.6,3.6-3.65,21.15-9.8,31.29-30.87,7.05-14.65,8.59-30.54,4.94-46.13-13.82,3.22-28.88,14.78-34.89,26.17-3.37,6.38-5.64,13.3-6.82,20.36-1.59,9.45-3.87,18.45-9.51,26.7l-8.41-14.23c-.37-.6-1.72-1.36-2.25-1.53ZM216.03,175.97c-1.15,3.72-2.64,8.97-7.03,10.76-6.03,2.49-13.01,1.38-18.99.53-1.31-.18-3.13,1.63-4.54,2.36-3.58,1.88,5.51-17.04,15.54-22.52,6.89-4.65,15.23-3.87,20.42,2.36l.21,1.91c.24,1.83-4.15-.23-5.62,4.6ZM234.86,62.1c2.04-9.55,7.76-16.97,15.07-22.92l3.87-3.12c.26,1.56.31,3.49-.05,4.45l-4.07,10.41,8.8-5.78c-.21,6.56-4.05,11.76-7.89,18.17l6.84-2.54c-1.91,7.89-6.95,16.79-13.06,22.25-4.96,4.42-10.03,9-17.03,10.83,3.32-11.21,5.33-21.32,7.52-31.75Z"/>
        <path class="cls-1" d="M8.69,482.9l-5.69-6.71c1.67,19.66,14.34,34.46,30.95,45.35l-8.2-24.28-6.27-29.31c-2.95-13.75-7-26.52-12.09-39.54l-5.8-20.26c-2.04,6.66-1.62,13.5-1.38,20.56.21,6.01,1.33,11.49,3.42,17.14l4.75,12.77,5.3,14.35,6.06,19.23c.39,1.28.16,2.66-.68,3.85l-10.37-13.15Z"/>
        <path class="cls-1" d="M21.57,420.76l4.7,21.42c1.96-8.67,4.52-17.29,3.58-26.04l-3.19-29.33c-1.12-10.51,1.91-27.37,6.45-37.98-5.77,5.76-9.38,12.57-12.25,19.53-4.15,10.05-4.73,20.86-3.5,31.52l4.2,20.89Z"/>
        <path class="cls-1" d="M71.21,550.34c-9.64-11.01-16.32-21.74-19.35-35.17-2.3-10.53-5.09-20.76-5.8-31.67-2.06-31.47,5.61-61.66,18.49-90.22,6.22-13.8,11.57-27.1,20.58-39.41,1.67-2.34.71-4.58-.52-6.84-2.32-4.15-5.48-9.2-7-7.59l-1.2,1.28-9.95,29.89-8.54,16.89c-17,33.61-25.67,67.64-20.24,105.42,3.32,23.05,11.86,45.52,33.53,57.41Z"/>
        <path class="cls-1" d="M59.7,552.9l-8.02-6.94c-3.13-2.41-5.46-6.64-8.91-8.7l-23.58-14.08c1.36,4.1,2.61,8.62,5.38,12.12,1.88,2.39,5.09,4.05,7.47,5.98,7.97,6.44,17.16,10.58,27.66,11.61Z"/>
        <path class="cls-1" d="M206.58,171.23c-6.23.25-11.2,9.31-11.2,9.31.97-1.76,12.2,1.61,14.36-.62,2.16-2.22,4.04-8.75,4.04-8.75,0,0-.96-.2-7.2.05Z"/>
        <path class="cls-1" d="M96.23,184.63l4.32.14s-5.4-12.82-9.88-14.59l2.36,11.83c.3,1.49,1.63,2.58,3.2,2.63Z"/>
      </g>
    </g>
  </g>
</svg>